# Matthew Haywood - Mesh Simplification Project output file.
# Electronic and Electrical Engineering, The University of Nottingham.
# Vertices: 15 Triangles: 25
mtllib outputCube.mtl
o Cube 
v 1 1 -1
v 1 -1 -1
v 1 1 1
v 1 -1 1
v -1 1 -1
v -1 -1 -1
v -1 1 1
v -1 -1 1
v -1 0 0.707107
v 1 0 -0.707107
v 0 1 -0.707107
v -0.707107 0 1
v 0 -1 0.707107
v 0.707107 0 -1
vn 0 -1 0
vn 0 -1 0
vn 0 -1 0
vn -0 -1 0
vn 0 0 -1
vn 0 0 -1
vn 0 0 -1
vn 0 -0 -1
vn 0 -0 1
vn 0 0 1
vn 0 0 1
vn 0 0 1
vn -0 1 0
vn 0 1 0
vn 0 1 0
vn 0 1 0
vn -1 0 0
vn -1 0 0
vn -1 0 -0
vn -1 0 0
vn 1 0 0
vn 1 0 0
vn 1 0 -0
vn 1 0 0

g Cube_Cube_Material
usemtl default
s off 
f 6//1 2//1 28//1
f 2//2 4//2 28//2
f 8//3 6//3 28//3
f 4//4 8//4 28//4
f 6//5 5//5 30//5
f 5//6 1//6 30//6
f 2//7 6//7 30//7
f 1//8 2//8 30//8
f 4//9 3//9 18//9
f 3//10 7//10 18//10
f 8//11 4//11 18//11
f 7//12 8//12 18//12
f 7//13 3//13 13//13
f 3//14 1//14 13//14
f 5//15 7//15 13//15
f 1//16 5//16 13//16
f 5//17 6//17 10//17
f 6//18 8//18 10//18
f 7//19 5//19 10//19
f 8//20 7//20 10//20
f 3//21 4//21 10//21
f 4//22 2//22 10//22
f 1//23 3//23 10//23
f 2//24 1//24 10//24

g Cube_Cube_Material
usemtl material-1
s off 

g Cube_Cube_Material
usemtl material-2
s off 

g Cube_Cube_Material
usemtl material-3
s off 

g Cube_Cube_Material
usemtl material-4
s off 

g Cube_Cube_Material
usemtl material-5
s off 

g Cube_Cube_Material
usemtl material-6
s off 

g Cube_Cube_Material
usemtl material-7
s off 

g Cube_Cube_Material
usemtl material-8
s off 

g Cube_Cube_Material
usemtl material-9
s off 

g Cube_Cube_Material
usemtl material-10
s off 

g Cube_Cube_Material
usemtl material-11
s off 

g Cube_Cube_Material
usemtl material-12
s off 

g Cube_Cube_Material
usemtl material-13
s off 

g Cube_Cube_Material
usemtl material-14
s off 

g Cube_Cube_Material
usemtl material-15
s off 

g Cube_Cube_Material
usemtl material-16
s off 

g Cube_Cube_Material
usemtl material-17
s off 

g Cube_Cube_Material
usemtl material-18
s off 

g Cube_Cube_Material
usemtl material-19
s off 

g Cube_Cube_Material
usemtl material-20
s off 

g Cube_Cube_Material
usemtl material-21
s off 

g Cube_Cube_Material
usemtl material-22
s off 

g Cube_Cube_Material
usemtl material-23
s off 

g Cube_Cube_Material
usemtl material-24
s off 

g Cube_Cube_Material
usemtl material-25
s off 

g Cube_Cube_Material
usemtl material-26
s off 

g Cube_Cube_Material
usemtl material-27
s off 

g Cube_Cube_Material
usemtl material-28
s off 

g Cube_Cube_Material
usemtl material-29
s off 

g Cube_Cube_Material
usemtl material-30
s off 

