# Matthew Haywood - Mesh Simplification Project output file.
# Electronic and Electrical Engineering, The University of Nottingham.
# Vertices: 10 Triangles: 9
mtllib outputCube.mtl
o Cube 
v 1 1 -1
v -1 1 -1
v -1 1 1
v 1 1 1
v 1 -1 1
v -1 -1 1
v -1 -1 -1
v 1 -1 -1
v 1 -0.707107 -0
vn 0 1 -0
vn 0 1 0
vn 0 0 1
vn 0 -0 1
vn 1 0 -0
vn 1 0 0
vn 1 0 0
vn 1 0 0

g Cube_Cube_Material
usemtl default
s off 
f 1//1 3//1 4//1
f 1//2 2//2 3//2
f 5//3 3//3 6//3
f 5//4 4//4 3//4
f 1//5 4//5 9//5
f 4//6 5//6 9//6
f 8//7 1//7 9//7
f 5//8 8//8 9//8

g Cube_Cube_Material
usemtl material-1
s off 

g Cube_Cube_Material
usemtl material-2
s off 

g Cube_Cube_Material
usemtl material-3
s off 

g Cube_Cube_Material
usemtl material-4
s off 

g Cube_Cube_Material
usemtl material-5
s off 

g Cube_Cube_Material
usemtl material-6
s off 

g Cube_Cube_Material
usemtl material-7
s off 

g Cube_Cube_Material
usemtl material-8
s off 

