# Matthew Haywood - Mesh Simplification Project output file.
# Electronic and Electrical Engineering, The University of Nottingham.
<<<<<<< HEAD
# Vertices: 252 Triangles: 80
mtllib outputCube.mtl
o Cube 
v 0 0.974928 -0.222521
v 0 0.781831 -0.62349
v 0 0.62349 -0.781832
v 0 0.222521 -0.974928
v 0 0 -1
v 0 -0.62349 -0.781832
v 0.200484 0.433884 -0.87838
v 0.222521 0 -0.974928
v 0.216942 -0.222521 -0.950484
v 0.096548 -0.900969 -0.423005
v 0.049516 -0.974928 -0.216942
v 0.188255 0.900969 -0.390916
v 0.433884 0 -0.900969
v 0.270522 -0.781832 -0.561745
v 0.188255 -0.900969 -0.390916
v 0.096548 -0.974928 -0.200484
v 0.38874 0.781831 -0.487464
v 0.607858 0.222521 -0.762229
v 0.62349 0 -0.781831
v 0.607858 -0.222521 -0.762229
v 0.487464 -0.62349 -0.61126
v 0.38874 -0.781832 -0.487464
v 0.270522 -0.900969 -0.339224
v 0.13874 -0.974928 -0.173974
v 0.704406 0.433884 -0.561745
v 0.781832 0 -0.62349
v 0.704406 -0.433884 -0.561745
v 0.611261 -0.62349 -0.487464
v 0.487464 -0.781832 -0.388739
v 0.339224 -0.900969 -0.270522
v 0.173974 -0.974928 -0.138739
v 0.900969 0 -0.433884
v 0.87838 -0.222521 -0.423005
v 0.811745 -0.433884 -0.390916
v 0.704406 -0.62349 -0.339224
v 0.561745 -0.781832 -0.270522
v 0.390916 -0.900969 -0.188255
v 0.200485 -0.974928 -0.096548
v 0.607858 0.781831 -0.138739
v 0.87838 0.433884 -0.200484
v 0.950485 0.222521 -0.216942
v 0.974928 0 -0.222521
v 0.950485 -0.222521 -0.216942
v 0.87838 -0.433884 -0.200484
v 0.76223 -0.62349 -0.173974
v 0.607858 -0.781832 -0.138739
v 0.423005 -0.900969 -0.096548
v 0.216942 -0.974928 -0.049515
v 0.433884 0.900969 0
v 0.781832 0.62349 0
v 0.900969 0.433884 0
v 0.974928 0.222521 0
v 1 0 0
v 0.974928 -0.222521 0
v 0.900969 -0.433884 0
v 0.781832 -0.62349 0
v 0.62349 -0.781832 0
v 0.433884 -0.900969 0
v 0.222521 -0.974928 0
v 0.607858 0.781831 0.13874
v 0.76223 0.62349 0.173974
v 0.87838 0.433884 0.200485
v 0.950485 0.222521 0.216942
v 0.974928 0 0.222521
v 0.950485 -0.222521 0.216942
v 0.87838 -0.433884 0.200485
v 0.76223 -0.62349 0.173974
v 0.607858 -0.781832 0.13874
v 0.423005 -0.900969 0.096549
v 0.216942 -0.974928 0.049516
v 0.561745 0.781831 0.270523
v 0.704406 0.62349 0.339224
v 0.811745 0.433884 0.390916
v 0.87838 0.222521 0.423006
v 0.900969 0 0.433884
v 0.87838 -0.222521 0.423006
v 0.811745 -0.433884 0.390916
v 0.704406 -0.62349 0.339224
v 0.561745 -0.781832 0.270522
v 0.390916 -0.900969 0.188255
v 0.200484 -0.974928 0.096549
v 0.487464 0.781831 0.38874
v 0.611261 0.62349 0.487464
v 0.704406 0.433884 0.561745
v 0.762229 0.222521 0.607858
v 0.781831 0 0.62349
v 0.762229 -0.222521 0.607858
v 0.704406 -0.433884 0.561745
v 0.611261 -0.62349 0.487464
v 0.487464 -0.781832 0.38874
v 0.339224 -0.900969 0.270522
v 0.173974 -0.974928 0.13874
v 0.13874 0.974928 0.173974
v 0.38874 0.781831 0.487465
v 0.487464 0.62349 0.611261
v 0.561745 0.433884 0.704406
v 0.607858 0.222521 0.76223
v 0.62349 0 0.781832
v 0.607858 -0.222521 0.76223
v 0.561745 -0.433884 0.704406
v 0.487464 -0.62349 0.611261
v 0.38874 -0.781832 0.487464
v 0.270522 -0.900969 0.339224
v 0.13874 -0.974928 0.173974
v 0.188255 0.900969 0.390916
v 0.270522 0.781831 0.561745
v 0.339224 0.62349 0.704406
v 0.390916 0.433884 0.811745
v 0.423005 0.222521 0.87838
v 0.433884 0 0.900969
v 0.423005 -0.222521 0.87838
v 0.390916 -0.433884 0.811745
v 0.339224 -0.62349 0.704406
v 0.270522 -0.781832 0.561745
v 0.188255 -0.900969 0.390916
v 0.096548 -0.974928 0.200485
v 0.096548 0.900969 0.423006
v 0.13874 0.781831 0.607858
v 0.173974 0.62349 0.76223
v 0.200485 0.433884 0.87838
v 0.216942 0.222521 0.950485
v 0.222521 0 0.974928
v 0.216942 -0.222521 0.950485
v 0.200485 -0.433884 0.87838
v 0.173974 -0.62349 0.76223
v 0.13874 -0.781832 0.607858
v 0.096548 -0.900969 0.423006
v 0.049516 -0.974928 0.216942
v 0 0.900969 0.433884
v -0 0.781831 0.62349
v 0 0.62349 0.781832
v 0 0.433884 0.900969
v 0 0.222521 0.974928
v -0 0 1
v -0 -0.222521 0.974928
v 0 -0.433884 0.900969
v 0 -0.62349 0.781832
v 0 -0.781832 0.62349
v 0 -0.900969 0.433884
v -0 -0.974928 0.222521
v -0.13874 0.781831 0.607858
v -0.173974 0.62349 0.76223
v -0.200484 0.433884 0.87838
v -0.216942 0.222521 0.950485
v -0.222521 0 0.974928
v -0.216942 -0.222521 0.950485
v -0.200484 -0.433884 0.87838
v -0.173974 -0.62349 0.76223
v -0.138739 -0.781832 0.607858
v -0.096548 -0.900969 0.423006
v -0.049516 -0.974928 0.216942
v -0.096548 0.974928 0.200485
v -0.188255 0.900969 0.390916
v -0.270522 0.781831 0.561745
v -0.339224 0.62349 0.704406
v -0.390916 0.433884 0.811745
v -0.423005 0.222521 0.87838
v -0.433884 0 0.900969
v -0.423005 -0.222521 0.87838
v -0.390916 -0.433884 0.811745
v -0.339224 -0.62349 0.704406
v -0.270522 -0.781832 0.561745
v -0.188255 -0.900969 0.390916
v -0.096548 -0.974928 0.200485
v -0.38874 0.781831 0.487464
v -0.487464 0.62349 0.611261
v -0.561745 0.433884 0.704406
v -0.607858 0.222521 0.76223
v -0.62349 0 0.781832
v -0.607858 -0.222521 0.76223
v -0.561745 -0.433884 0.704406
v -0.487464 -0.62349 0.611261
v -0.38874 -0.781832 0.487464
v -0.270522 -0.900969 0.339224
v -0.13874 -0.974928 0.173974
v -0.487464 0.781831 0.38874
v -0.611261 0.62349 0.487464
v -0.704406 0.433884 0.561745
v -0.762229 0.222521 0.607858
v -0.781831 0 0.62349
v -0.762229 -0.222521 0.607858
v -0.704406 -0.433884 0.561745
v -0.611261 -0.62349 0.487464
v -0.487464 -0.781832 0.38874
v -0.339224 -0.900969 0.270522
v -0.173974 -0.974928 0.13874
v 0 -1 0
v -0.811745 0.433884 0.390916
v -0.87838 0.222521 0.423006
v -0.900969 0 0.433884
v -0.87838 -0.222521 0.423006
v -0.811745 -0.433884 0.390916
v -0.704406 -0.62349 0.339224
v -0.561745 -0.781832 0.270522
v -0.390916 -0.900969 0.188255
v -0.200484 -0.974928 0.096549
v -0 1 0
v -0.423006 0.900969 0.096549
v -0.76223 0.62349 0.173974
v -0.87838 0.433884 0.200485
v -0.974928 0 0.222521
v -0.950485 -0.222521 0.216942
v -0.87838 -0.433884 0.200485
v -0.76223 -0.62349 0.173974
v -0.607858 -0.781832 0.13874
v -0.423005 -0.900969 0.096549
v -0.216942 -0.974928 0.049516
v -0.974928 0.222521 0
v -1 0 0
v -0.974928 -0.222521 0
v -0.900969 -0.433884 0
v -0.781832 -0.62349 0
v -0.62349 -0.781832 0
v -0.433884 -0.900969 0
v -0.222521 -0.974928 0
v -0.607858 0.781831 -0.138739
v -0.76223 0.62349 -0.173974
v -0.76223 -0.62349 -0.173974
v -0.607858 -0.781832 -0.138739
v -0.423005 -0.900969 -0.096548
v -0.216942 -0.974928 -0.049515
v -0.811745 0.433884 -0.390915
v -0.87838 -0.222521 -0.423005
v -0.704406 -0.62349 -0.339224
v -0.561745 -0.781832 -0.270522
v -0.390916 -0.900969 -0.188255
v -0.200484 -0.974928 -0.096548
v -0.762229 0.222521 -0.607857
v -0.781831 0 -0.623489
v -0.339224 -0.900969 -0.270522
v -0.173974 -0.974928 -0.138739
v -0.270522 0.900969 -0.339224
v -0.487464 0.62349 -0.61126
v -0.561745 0.433884 -0.704405
v -0.607858 -0.222521 -0.762229
v -0.561745 -0.433884 -0.704405
v -0.38874 -0.781832 -0.487464
v -0.270522 -0.900969 -0.339224
v -0.13874 -0.974928 -0.173974
v -0.270522 0.781831 -0.561745
v -0.433884 0 -0.900968
v -0.188255 -0.900969 -0.390915
v -0.096548 -0.974928 -0.200484
v -0.200485 0.433884 -0.878379
v -0.222521 0 -0.974927
v -0.216942 -0.222521 -0.950484
v -0.096548 -0.900969 -0.423005
v -0.049516 -0.974928 -0.216942
v 0 -0.781832 -0.62349
v -0 -0.900969 -0.433883
v 0 -0.974928 -0.222521
vn 0.240184 0.68641 -0.686406
vn -0.0478257 0.904182 -0.424463
vn 0.272708 0.649687 -0.709604
vn -2.25194e-06 0.453761 -0.891124
vn -0.159331 0.698076 -0.698072
vn -0.0505253 0.892393 -0.448422
vn -0.107113 0.876523 -0.469291
vn 0.328009 0.117064 -0.937393
vn -2.29899e-06 0.415494 -0.909596
vn 0.304753 0.946443 -0.106638
vn 0.199374 0.797247 -0.569778
vn 0.443338 0.552834 -0.705568
vn -0.319699 0.676079 -0.66386
vn -0.264519 0.598809 -0.755948
vn 0 1 0
vn 0.285224 0.95325 -0.0998045
vn 0.328427 0.105753 -0.93859
vn 0.464178 0.488681 -0.738735
vn -0.111273 0.111269 -0.987541
vn -0.313616 0.313612 -0.896266
vn -0.284077 0.510113 -0.811841
vn -0.433884 1.49451e-06 -0.900969
vn -0.484578 0.784761 -0.386438
vn -0.509347 0.758666 -0.406191
vn 0.0893148 0.60304 -0.792695
vn 0.666987 0.673245 -0.319172
vn -0.433885 9.99992e-07 -0.900968
vn -0.45071 0.690972 -0.565171
vn 0.111269 -0.111272 -0.987541
vn -0.111273 -0.111267 -0.987541
vn -0.328228 -0.111267 -0.938022
vn -0.423525 -0.217206 -0.879459
vn -0.431666 0.100995 -0.896362
vn -0.623491 3.15986e-06 -0.781831
vn -0 -0.21721 -0.976125
vn 0.313616 0.313618 -0.896264
vn -0.666684 0.522366 -0.531663
vn -0.763166 -0.217204 -0.608605
vn 0.178738 0.977466 -0.112309
vn -0.389845 0.397857 -0.8305
vn 0.40162 0.880351 -0.252355
vn 0.379385 -0.525554 -0.761486
vn 0.328228 -0.111271 -0.938022
vn 0 -0.387711 -0.921781
vn -0.410645 -0.322874 -0.852715
vn 0.768026 0.421013 -0.482582
vn -0.711151 0.415492 -0.567124
vn -0.707712 -0.42499 -0.564381
vn 0.401622 0.880351 -0.252355
vn 0.423524 -0.21721 -0.879458
vn 0.528731 0.111268 -0.841465
vn -0.280983 -0.497276 -0.820832
vn 0.840902 0.117065 -0.528374
vn 0.66386 0.676079 -0.319698
vn -0.819635 -0.310527 -0.481426
vn -0.615749 0.68641 -0.386902
vn 0.52873 -0.111268 -0.841465
vn -0.306321 -0.608652 -0.731922
vn -0.651584 0.638603 -0.409419
vn 0.327466 -0.130286 -0.935838
vn 0.564064 0.603042 -0.564068
vn -0.937393 0.117064 -0.328009
vn -0.93859 0.105753 -0.328428
vn -0.951651 0.217212 -0.217208
vn -0.230354 0.969763 -0.0806046
vn 0.380633 0.924726 0
vn 0.702714 -0.111268 -0.702718
vn -0.93859 0.105753 -0.328428
vn -0.93859 -0.105753 -0.328428
vn -0.647143 0.727961 -0.226446
vn 0.189989 -0.520599 -0.832395
vn 0.804008 0.313614 -0.50519
vn -0.926544 0.361411 -0.104397
vn -0.716024 0.698076 0
vn -0.852722 0.522366 0
vn -0.866976 0.488682 -0.0976851
vn -0.440412 0.892151 -0.100521
vn -0.82267 0.536617 -0.187768
vn -0.108122 0.990391 0.0862252
=======
# Vertices: 9 Triangles: 3
mtllib outputCube.mtl
o Cube 
v 1 1 -1
v 1 -1 -1
v 1 1 1
v 1 -1 1
v -1 1 -1
v -1 -1 -1
v -1 1 1
v -1 -1 1
vn 1 0 -0
vn 1 0 0
>>>>>>> main

g Cube_Cube_Material
usemtl default
s off 
<<<<<<< HEAD
f 3//1 2//1 17//1
f 2//2 232//2 12//2
f 7//3 3//3 17//3
f 244//4 3//4 7//4
f 3//5 240//5 2//5
f 232//6 1//6 12//6
f 240//7 232//7 2//7
f 4//8 7//8 18//8
f 4//9 244//9 7//9
f 1//10 197//10 93//10
f 12//11 17//11 2//11
f 17//12 25//12 7//12
f 234//13 3//13 244//13
f 233//14 240//14 3//14
f 93//15 1//15 152//15
f 93//16 12//16 1//16
f 5//17 4//17 18//17
f 25//18 18//18 7//18
f 245//19 4//19 5//19
f 241//20 4//20 245//20
f 234//21 233//21 3//21
f 4//22 234//22 244//22
f 233//23 216//23 240//23
f 216//24 232//24 240//24
f 18//25 8//25 5//25
f 17//26 50//26 25//26
f 228//27 234//27 4//27
f 229//28 4//28 241//28
f 9//29 5//29 8//29
f 246//30 245//30 5//30
f 246//31 241//31 245//31
f 235//32 241//32 246//32
f 229//33 228//33 4//33
f 235//34 229//34 241//34
f 9//35 246//35 5//35
f 18//36 13//36 8//36
f 222//37 233//37 234//37
f 223//38 229//38 235//38
f 93//39 49//39 12//39
f 93//40 49//40 39//40
f 49//41 17//41 12//41
f 6//42 9//42 27//42
f 13//43 9//43 8//43
f 6//44 246//44 9//44
f 236//45 235//45 246//45
f 17//46 39//46 50//46
f 228//47 222//47 234//47
f 224//48 223//48 235//48
f 49//49 39//49 17//49
f 13//50 20//50 9//50
f 18//51 19//51 13//51
f 6//52 236//52 246//52
f 25//53 41//53 18//53
f 50//54 40//54 25//54
f 236//55 224//55 235//55
f 217//56 216//56 233//56
f 19//57 20//57 13//57
f 237//58 236//58 6//58
f 222//59 217//59 233//59
f 27//60 21//60 6//60
f 41//61 26//61 19//61
f 208//62 222//62 228//62
f 209//63 228//63 229//63
f 210//64 229//64 223//64
f 198//65 1//65 232//65
f 93//66 60//66 39//66
f 26//67 20//67 19//67
f 209//68 208//68 228//68
f 210//69 209//69 229//69
f 199//70 198//70 232//70
f 21//71 14//71 249//71
f 41//72 32//72 26//72
f 200//73 217//73 222//73
f 217//74 199//74 216//74
f 200//75 199//75 217//75
f 208//76 200//76 222//76
f 1//77 152//77 197//77
f 153//78 152//78 1//78
f 198//79 153//79 1//79
=======
f 1//1 3//1 2//1
f 3//2 4//2 2//2
>>>>>>> main

g Cube_Cube_Material
usemtl material-1
s off 

<<<<<<< HEAD
l 3 2
l 2 232
l 2 17
l 17 3
l 232 12
l 12 2
l 7 3
l 17 7
l 244 3
l 3 240
l 240 2
l 232 1
l 240 232
l 1 12
l 7 244
l 4 7
l 4 244
l 1 197
l 12 17
l 7 18
l 18 4
l 17 25
l 25 7
l 234 3
l 244 234
l 233 240
l 3 233
l 197 93
l 93 1
l 93 12
l 5 4
l 18 5
l 25 18
l 245 4
l 241 4
l 234 233
l 4 234
l 233 216
l 216 240
l 216 232
l 18 8
l 8 5
l 5 245
l 245 241
l 17 50
l 228 234
l 4 228
l 229 4
l 241 229
l 9 5
l 8 9
l 246 245
l 5 246
l 246 241
l 50 25
l 235 241
l 229 228
l 235 229
l 9 246
l 18 13
l 13 8
l 246 235
l 222 233
l 234 222
l 223 229
l 235 223
l 93 49
l 49 12
l 49 17
l 6 9
l 13 9
l 6 246
l 236 235
l 246 236
l 17 39
l 39 50
l 228 222
l 224 223
l 235 224
l 49 39
l 9 27
l 27 6
l 13 20
l 20 9
l 18 19
l 19 13
l 6 236
l 25 41
l 41 18
l 50 40
l 40 25
l 236 224
l 217 216
l 233 217
l 20 27
l 19 20
l 41 19
l 237 236
l 6 237
l 40 41
l 222 217
l 93 39
l 27 21
l 21 6
l 41 26
l 26 19
l 237 224
l 208 222
l 228 208
l 209 228
l 229 209
l 210 229
l 223 210
l 198 1
l 232 198
l 93 60
l 60 39
l 197 152
l 152 93
l 249 6
l 21 249
l 26 20
l 209 208
l 210 209
l 199 198
l 232 199
l 216 199
l 21 14
l 14 249
l 249 237
l 26 33
l 33 20
l 41 32
l 32 26
l 200 217
l 222 200
l 217 199
l 33 27
l 32 33
l 200 199
l 208 200
l 1 152
l 176 198
l 199 176
l 153 152
l 1 153
l 198 153
=======
l 1 3
l 3 4
l 3 2
l 2 1
l 4 2
>>>>>>> main
