# Blender v2.91.0 OBJ File: ''
# www.blender.org
mtllib sphere.mtl
o Sphere
v 0.345492 0.809017 -0.475528
v 0.559017 0.309017 -0.769421
v 0.559017 -0.309017 -0.769421
v 0.345492 -0.809017 -0.475528
v 0.559017 0.809017 -0.181636
v 0.904509 0.309017 -0.293893
v 0.904509 -0.309017 -0.293893
v 0.559017 -0.809017 -0.181636
v 0.559017 0.809017 0.181636
v 0.904509 0.309017 0.293893
v 0.904509 -0.309017 0.293893
v 0.559017 -0.809017 0.181636
v 0.345492 0.809017 0.475528
v 0.559017 0.309017 0.769421
v 0.559017 -0.309017 0.769421
v 0.345492 -0.809017 0.475528
v -0.000000 0.809017 0.587785
v 0.000000 0.309017 0.951057
v 0.000000 -0.309017 0.951057
v 0.000000 -0.809017 0.587785
v -0.000000 1.000000 0.000000
v -0.345492 0.809017 0.475528
v -0.559017 0.309017 0.769421
v -0.559017 -0.309017 0.769421
v -0.345491 -0.809017 0.475528
v -0.559017 0.809017 0.181636
v -0.904509 0.309017 0.293893
v -0.904508 -0.309017 0.293893
v -0.559017 -0.809017 0.181636
v 0.000000 -1.000000 0.000000
v -0.559017 0.809017 -0.181636
v -0.904509 0.309017 -0.293892
v -0.904509 -0.309017 -0.293892
v -0.559017 -0.809017 -0.181636
v -0.345492 0.809017 -0.475528
v -0.559017 0.309017 -0.769421
v -0.559017 -0.309017 -0.769421
v -0.345492 -0.809017 -0.475528
v -0.000000 0.809017 -0.587785
v -0.000000 0.309017 -0.951056
v -0.000000 -0.309017 -0.951056
v -0.000000 -0.809017 -0.587785
vt 0.700000 0.400000
vt 0.700000 0.600000
vt 0.600000 0.600000
vt 0.600000 0.400000
vt 0.700000 0.800000
vt 0.650000 1.000000
vt 0.600000 0.800000
vt 0.700000 0.200000
vt 0.600000 0.200000
vt 0.650000 0.000000
vt 0.550000 0.000000
vt 0.500000 0.200000
vt 0.500000 0.600000
vt 0.500000 0.400000
vt 0.550000 1.000000
vt 0.500000 0.800000
vt 0.450000 0.000000
vt 0.400000 0.200000
vt 0.400000 0.600000
vt 0.400000 0.400000
vt 0.450000 1.000000
vt 0.400000 0.800000
vt 0.350000 0.000000
vt 0.300000 0.200000
vt 0.300000 0.600000
vt 0.300000 0.400000
vt 0.350000 1.000000
vt 0.300000 0.800000
vt 0.250000 0.000000
vt 0.200000 0.200000
vt 0.200000 0.600000
vt 0.200000 0.400000
vt 0.250000 1.000000
vt 0.200000 0.800000
vt 0.150000 0.000000
vt 0.100000 0.200000
vt 0.100000 0.600000
vt 0.100000 0.400000
vt 0.150000 1.000000
vt 0.100000 0.800000
vt 0.050000 0.000000
vt 0.000000 0.200000
vt 0.000000 0.600000
vt 0.000000 0.400000
vt 0.050000 1.000000
vt 0.000000 0.800000
vt 0.950000 0.000000
vt 1.000000 0.200000
vt 0.900000 0.200000
vt 1.000000 0.400000
vt 1.000000 0.600000
vt 0.900000 0.600000
vt 0.900000 0.400000
vt 1.000000 0.800000
vt 0.950000 1.000000
vt 0.900000 0.800000
vt 0.850000 0.000000
vt 0.800000 0.200000
vt 0.800000 0.600000
vt 0.800000 0.400000
vt 0.850000 1.000000
vt 0.800000 0.800000
vt 0.750000 0.000000
vt 0.750000 1.000000
vn 0.3090 -0.0000 -0.9511
vn 0.0999 0.9463 -0.3075
vn 0.2542 -0.5685 -0.7824
vn 0.2542 0.5685 -0.7824
vn 0.0999 -0.9463 -0.3075
vn 0.2616 -0.9463 -0.1900
vn 0.8090 -0.0000 -0.5878
vn 0.2616 0.9463 -0.1900
vn 0.6656 -0.5685 -0.4836
vn 0.6656 0.5685 -0.4836
vn 0.3233 -0.9463 0.0000
vn 1.0000 -0.0000 0.0000
vn 0.3233 0.9463 0.0000
vn 0.8227 -0.5685 0.0000
vn 0.8227 0.5685 0.0000
vn 0.2616 -0.9463 0.1900
vn 0.8090 -0.0000 0.5878
vn 0.2616 0.9463 0.1900
vn 0.6656 -0.5685 0.4836
vn 0.6656 0.5685 0.4836
vn 0.0999 -0.9463 0.3075
vn 0.3090 -0.0000 0.9511
vn 0.0999 0.9463 0.3075
vn 0.2542 -0.5685 0.7824
vn 0.2542 0.5685 0.7824
vn -0.0999 -0.9463 0.3075
vn -0.3090 -0.0000 0.9511
vn -0.0999 0.9463 0.3075
vn -0.2542 -0.5685 0.7824
vn -0.2542 0.5685 0.7824
vn -0.2616 -0.9463 0.1900
vn -0.8090 -0.0000 0.5878
vn -0.2616 0.9463 0.1900
vn -0.6656 -0.5685 0.4836
vn -0.6656 0.5685 0.4836
vn -0.3233 -0.9463 0.0000
vn -1.0000 -0.0000 0.0000
vn -0.3233 0.9463 0.0000
vn -0.8227 -0.5685 0.0000
vn -0.8227 0.5685 0.0000
vn -0.2616 -0.9463 -0.1900
vn -0.8090 -0.0000 -0.5878
vn -0.2616 0.9463 -0.1900
vn -0.6656 -0.5685 -0.4836
vn -0.6656 0.5685 -0.4836
vn -0.0999 -0.9463 -0.3075
vn -0.3090 -0.0000 -0.9511
vn -0.0999 0.9463 -0.3075
vn -0.2542 -0.5685 -0.7824
vn -0.2542 0.5685 -0.7824
g Sphere_Sphere_None
usemtl None
s off
f 41/1/1 40/2/1 2/3/1 3/4/1
f 39/5/2 21/6/2 1/7/2
f 42/8/3 41/1/3 3/4/3 4/9/3
f 40/2/4 39/5/4 1/7/4 2/3/4
f 30/10/5 42/8/5 4/9/5
f 30/11/6 4/9/6 8/12/6
f 3/4/7 2/3/7 6/13/7 7/14/7
f 1/7/8 21/15/8 5/16/8
f 4/9/9 3/4/9 7/14/9 8/12/9
f 2/3/10 1/7/10 5/16/10 6/13/10
f 30/17/11 8/12/11 12/18/11
f 7/14/12 6/13/12 10/19/12 11/20/12
f 5/16/13 21/21/13 9/22/13
f 8/12/14 7/14/14 11/20/14 12/18/14
f 6/13/15 5/16/15 9/22/15 10/19/15
f 30/23/16 12/18/16 16/24/16
f 11/20/17 10/19/17 14/25/17 15/26/17
f 9/22/18 21/27/18 13/28/18
f 12/18/19 11/20/19 15/26/19 16/24/19
f 10/19/20 9/22/20 13/28/20 14/25/20
f 30/29/21 16/24/21 20/30/21
f 15/26/22 14/25/22 18/31/22 19/32/22
f 13/28/23 21/33/23 17/34/23
f 16/24/24 15/26/24 19/32/24 20/30/24
f 14/25/25 13/28/25 17/34/25 18/31/25
f 30/35/26 20/30/26 25/36/26
f 19/32/27 18/31/27 23/37/27 24/38/27
f 17/34/28 21/39/28 22/40/28
f 20/30/29 19/32/29 24/38/29 25/36/29
f 18/31/30 17/34/30 22/40/30 23/37/30
f 30/41/31 25/36/31 29/42/31
f 24/38/32 23/37/32 27/43/32 28/44/32
f 22/40/33 21/45/33 26/46/33
f 25/36/34 24/38/34 28/44/34 29/42/34
f 23/37/35 22/40/35 26/46/35 27/43/35
f 30/47/36 29/48/36 34/49/36
f 28/50/37 27/51/37 32/52/37 33/53/37
f 26/54/38 21/55/38 31/56/38
f 29/48/39 28/50/39 33/53/39 34/49/39
f 27/51/40 26/54/40 31/56/40 32/52/40
f 30/57/41 34/49/41 38/58/41
f 33/53/42 32/52/42 36/59/42 37/60/42
f 31/56/43 21/61/43 35/62/43
f 34/49/44 33/53/44 37/60/44 38/58/44
f 32/52/45 31/56/45 35/62/45 36/59/45
f 30/63/46 38/58/46 42/8/46
f 37/60/47 36/59/47 40/2/47 41/1/47
f 35/62/48 21/64/48 39/5/48
f 38/58/49 37/60/49 41/1/49 42/8/49
f 36/59/50 35/62/50 39/5/50 40/2/50
