# Blender v2.91.0 OBJ File: ''
# www.blender.org
mtllib sphere-200.mtl
o Sphere
v 0.000000 0.951057 -0.309017
v 0.000000 0.309017 -0.951057
v 0.000000 -0.309017 -0.951056
v 0.000000 -0.809017 -0.587785
v 0.000000 -0.951057 -0.309017
v 0.095492 0.951057 -0.293893
v 0.181636 0.809017 -0.559017
v 0.250000 0.587785 -0.769421
v 0.293893 0.309017 -0.904509
v 0.309017 -0.000000 -0.951057
v 0.293893 -0.309017 -0.904508
v 0.250000 -0.587785 -0.769421
v 0.181636 -0.809017 -0.559017
v 0.095492 -0.951057 -0.293892
v 0.181636 0.951057 -0.250000
v 0.345492 0.809017 -0.475528
v 0.475528 0.587785 -0.654509
v 0.559017 0.309017 -0.769421
v 0.587785 -0.000000 -0.809017
v 0.559017 -0.309017 -0.769421
v 0.475528 -0.587785 -0.654509
v 0.345492 -0.809017 -0.475528
v 0.181636 -0.951057 -0.250000
v 0.250000 0.951057 -0.181636
v 0.475529 0.809017 -0.345491
v 0.654509 0.587785 -0.475528
v 0.769421 0.309017 -0.559017
v 0.809017 -0.000000 -0.587785
v 0.769421 -0.309017 -0.559017
v 0.654509 -0.587785 -0.475528
v 0.475529 -0.809017 -0.345491
v 0.250000 -0.951057 -0.181635
v 0.293893 0.951057 -0.095491
v 0.559017 0.809017 -0.181635
v 0.769421 0.587785 -0.250000
v 0.904509 0.309017 -0.293892
v 0.951057 -0.000000 -0.309017
v 0.904509 -0.309017 -0.293892
v 0.769421 -0.587785 -0.250000
v 0.559017 -0.809017 -0.181635
v 0.293893 -0.951057 -0.095491
v 0.309017 0.951057 0.000000
v 0.587786 0.809017 0.000000
v 0.809017 0.587785 0.000000
v 0.951057 0.309017 0.000000
v 1.000001 -0.000000 0.000000
v 0.951057 -0.309017 0.000000
v 0.809017 -0.587785 0.000000
v 0.587786 -0.809017 0.000000
v 0.309017 -0.951057 0.000000
v 0.293893 0.951057 0.095492
v 0.559017 0.809017 0.181636
v 0.769421 0.587785 0.250000
v 0.904509 0.309017 0.293893
v 0.951057 -0.000000 0.309018
v 0.904509 -0.309017 0.293893
v 0.769421 -0.587785 0.250000
v 0.559017 -0.809017 0.181636
v 0.293893 -0.951057 0.095492
v 0.250000 0.951057 0.181636
v 0.475529 0.809017 0.345492
v 0.654509 0.587785 0.475529
v 0.769421 0.309017 0.559018
v 0.809018 -0.000000 0.587786
v 0.769421 -0.309017 0.559018
v 0.654509 -0.587785 0.475529
v 0.475529 -0.809017 0.345492
v 0.250000 -0.951057 0.181636
v 0.181636 0.951057 0.250001
v 0.345492 0.809017 0.475529
v 0.475529 0.587785 0.654509
v 0.559017 0.309017 0.769422
v 0.587786 -0.000000 0.809018
v 0.559017 -0.309017 0.769422
v 0.475529 -0.587785 0.654509
v 0.345492 -0.809017 0.475529
v 0.181636 -0.951057 0.250000
v 0.095492 0.951057 0.293893
v 0.181636 0.809017 0.559018
v 0.250000 0.587785 0.769422
v 0.293893 0.309017 0.904509
v 0.309017 -0.000000 0.951057
v 0.293893 -0.309017 0.904509
v 0.250000 -0.587785 0.769422
v 0.181636 -0.809017 0.559018
v 0.095492 -0.951057 0.293893
v -0.000000 0.951057 0.309018
v -0.000000 0.809017 0.587786
v 0.000000 0.587785 0.809018
v -0.000000 0.309017 0.951057
v 0.000000 -0.000000 1.000001
v 0.000000 -0.309017 0.951057
v 0.000000 -0.587785 0.809018
v -0.000000 -0.809017 0.587786
v -0.000000 -0.951057 0.309018
v -0.095492 0.951057 0.293893
v -0.181636 0.809017 0.559018
v -0.250000 0.587785 0.769422
v -0.293893 0.309017 0.904509
v -0.309017 -0.000000 0.951058
v -0.293893 -0.309017 0.904509
v -0.250000 -0.587785 0.769422
v -0.181636 -0.809017 0.559018
v -0.095492 -0.951057 0.293893
v -0.181636 0.951057 0.250001
v -0.345492 0.809017 0.475529
v -0.475529 0.587785 0.654509
v -0.559017 0.309017 0.769422
v -0.587786 -0.000000 0.809018
v -0.559017 -0.309017 0.769422
v -0.475529 -0.587785 0.654509
v -0.345492 -0.809017 0.475529
v -0.181636 -0.951057 0.250001
v -0.000000 1.000000 0.000001
v -0.250000 0.951057 0.181636
v -0.475529 0.809017 0.345492
v -0.654509 0.587785 0.475529
v -0.769421 0.309017 0.559018
v -0.809018 -0.000000 0.587786
v -0.769421 -0.309017 0.559018
v -0.654509 -0.587785 0.475529
v -0.475529 -0.809017 0.345492
v -0.250000 -0.951057 0.181636
v -0.293893 0.951057 0.095492
v -0.559018 0.809017 0.181636
v -0.769421 0.587785 0.250001
v -0.904509 0.309017 0.293893
v -0.951057 -0.000000 0.309018
v -0.904509 -0.309017 0.293893
v -0.769421 -0.587785 0.250001
v -0.559018 -0.809017 0.181636
v -0.293893 -0.951057 0.095492
v -0.309018 0.951057 0.000000
v -0.587786 0.809017 0.000000
v -0.809018 0.587785 0.000000
v -0.951057 0.309017 0.000000
v -1.000001 -0.000000 0.000000
v -0.951057 -0.309017 0.000000
v -0.809018 -0.587785 0.000000
v -0.587786 -0.809017 0.000000
v -0.309017 -0.951057 0.000000
v -0.293893 0.951057 -0.095491
v -0.559017 0.809017 -0.181636
v -0.769421 0.587785 -0.250000
v -0.904509 0.309017 -0.293893
v -0.951057 -0.000000 -0.309017
v -0.904509 -0.309017 -0.293892
v -0.769421 -0.587785 -0.250000
v -0.559017 -0.809017 -0.181636
v -0.293893 -0.951057 -0.095491
v 0.000000 -1.000000 0.000000
v -0.250000 0.951057 -0.181636
v -0.475529 0.809017 -0.345492
v -0.654509 0.587785 -0.475528
v -0.769421 0.309017 -0.559017
v -0.809018 -0.000000 -0.587785
v -0.769421 -0.309017 -0.559017
v -0.654509 -0.587785 -0.475528
v -0.475529 -0.809017 -0.345492
v -0.250000 -0.951057 -0.181636
v -0.181636 0.951057 -0.250000
v -0.345492 0.809017 -0.475528
v -0.475529 0.587785 -0.654509
v -0.559017 0.309017 -0.769421
v -0.587786 -0.000000 -0.809017
v -0.559017 -0.309017 -0.769421
v -0.475529 -0.587785 -0.654509
v -0.345492 -0.809017 -0.475528
v -0.181636 -0.951057 -0.250000
v -0.095492 0.951057 -0.293893
v -0.181636 0.809017 -0.559017
v -0.250000 0.587785 -0.769421
v -0.293893 0.309017 -0.904509
v -0.309017 -0.000000 -0.951057
v -0.293893 -0.309017 -0.904509
v -0.250000 -0.587785 -0.769421
v -0.181636 -0.809017 -0.559017
v -0.095492 -0.951057 -0.293893
v 0.000000 0.809017 -0.587786
v -0.000000 0.587785 -0.809017
v -0.000000 -0.000000 -1.000001
v -0.000000 -0.587785 -0.809017
vt 0.750000 0.400000
vt 0.750000 0.500000
vt 0.700000 0.500000
vt 0.700000 0.400000
vt 0.750000 0.700000
vt 0.750000 0.800000
vt 0.700000 0.800000
vt 0.700000 0.700000
vt 0.725000 0.000000
vt 0.750000 0.100000
vt 0.700000 0.100000
vt 0.750000 0.300000
vt 0.700000 0.300000
vt 0.750000 0.600000
vt 0.700000 0.600000
vt 0.750000 0.900000
vt 0.725000 1.000000
vt 0.700000 0.900000
vt 0.750000 0.200000
vt 0.700000 0.200000
vt 0.650000 0.800000
vt 0.650000 0.700000
vt 0.675000 0.000000
vt 0.650000 0.100000
vt 0.650000 0.400000
vt 0.650000 0.300000
vt 0.650000 0.600000
vt 0.675000 1.000000
vt 0.650000 0.900000
vt 0.650000 0.200000
vt 0.650000 0.500000
vt 0.600000 0.200000
vt 0.600000 0.100000
vt 0.600000 0.500000
vt 0.600000 0.400000
vt 0.600000 0.800000
vt 0.600000 0.700000
vt 0.625000 0.000000
vt 0.600000 0.300000
vt 0.600000 0.600000
vt 0.625000 1.000000
vt 0.600000 0.900000
vt 0.550000 0.600000
vt 0.550000 0.500000
vt 0.550000 0.900000
vt 0.550000 0.800000
vt 0.550000 0.200000
vt 0.550000 0.100000
vt 0.550000 0.400000
vt 0.550000 0.700000
vt 0.575000 0.000000
vt 0.550000 0.300000
vt 0.575000 1.000000
vt 0.525000 1.000000
vt 0.500000 0.900000
vt 0.500000 0.300000
vt 0.500000 0.200000
vt 0.500000 0.600000
vt 0.500000 0.500000
vt 0.500000 0.800000
vt 0.500000 0.100000
vt 0.500000 0.400000
vt 0.500000 0.700000
vt 0.525000 0.000000
vt 0.450000 0.700000
vt 0.450000 0.600000
vt 0.475000 1.000000
vt 0.450000 0.900000
vt 0.450000 0.300000
vt 0.450000 0.200000
vt 0.450000 0.500000
vt 0.450000 0.800000
vt 0.450000 0.100000
vt 0.450000 0.400000
vt 0.475000 0.000000
vt 0.425000 0.000000
vt 0.400000 0.100000
vt 0.400000 0.400000
vt 0.400000 0.300000
vt 0.400000 0.700000
vt 0.400000 0.600000
vt 0.425000 1.000000
vt 0.400000 0.900000
vt 0.400000 0.200000
vt 0.400000 0.500000
vt 0.400000 0.800000
vt 0.350000 0.500000
vt 0.350000 0.400000
vt 0.350000 0.800000
vt 0.350000 0.700000
vt 0.375000 0.000000
vt 0.350000 0.100000
vt 0.350000 0.300000
vt 0.350000 0.600000
vt 0.375000 1.000000
vt 0.350000 0.900000
vt 0.350000 0.200000
vt 0.300000 0.900000
vt 0.300000 0.800000
vt 0.300000 0.200000
vt 0.300000 0.100000
vt 0.300000 0.500000
vt 0.300000 0.400000
vt 0.300000 0.700000
vt 0.325000 0.000000
vt 0.300000 0.300000
vt 0.300000 0.600000
vt 0.325000 1.000000
vt 0.250000 0.600000
vt 0.250000 0.500000
vt 0.250000 0.900000
vt 0.250000 0.800000
vt 0.250000 0.200000
vt 0.250000 0.100000
vt 0.250000 0.400000
vt 0.250000 0.700000
vt 0.275000 0.000000
vt 0.250000 0.300000
vt 0.275000 1.000000
vt 0.225000 1.000000
vt 0.200000 0.900000
vt 0.200000 0.300000
vt 0.200000 0.200000
vt 0.200000 0.600000
vt 0.200000 0.500000
vt 0.200000 0.800000
vt 0.200000 0.100000
vt 0.200000 0.400000
vt 0.200000 0.700000
vt 0.225000 0.000000
vt 0.150000 0.400000
vt 0.150000 0.300000
vt 0.150000 0.700000
vt 0.150000 0.600000
vt 0.175000 1.000000
vt 0.150000 0.900000
vt 0.150000 0.200000
vt 0.150000 0.500000
vt 0.150000 0.800000
vt 0.150000 0.100000
vt 0.175000 0.000000
vt 0.100000 0.800000
vt 0.100000 0.700000
vt 0.125000 0.000000
vt 0.100000 0.100000
vt 0.100000 0.400000
vt 0.100000 0.300000
vt 0.100000 0.600000
vt 0.125000 1.000000
vt 0.100000 0.900000
vt 0.100000 0.200000
vt 0.100000 0.500000
vt 0.050000 0.500000
vt 0.050000 0.400000
vt 0.050000 0.800000
vt 0.050000 0.700000
vt 0.075000 0.000000
vt 0.050000 0.100000
vt 0.050000 0.300000
vt 0.050000 0.600000
vt 0.075000 1.000000
vt 0.050000 0.900000
vt 0.050000 0.200000
vt 0.000000 0.900000
vt 0.000000 0.800000
vt 0.000000 0.200000
vt 0.000000 0.100000
vt 0.000000 0.500000
vt 0.000000 0.400000
vt 0.000000 0.700000
vt 0.025000 0.000000
vt 0.000000 0.300000
vt 0.000000 0.600000
vt 0.025000 1.000000
vt 1.000000 0.200000
vt 1.000000 0.300000
vt 0.950000 0.300000
vt 0.950000 0.200000
vt 1.000000 0.500000
vt 1.000000 0.600000
vt 0.950000 0.600000
vt 0.950000 0.500000
vt 1.000000 0.800000
vt 1.000000 0.900000
vt 0.950000 0.900000
vt 0.950000 0.800000
vt 1.000000 0.100000
vt 0.950000 0.100000
vt 1.000000 0.400000
vt 0.950000 0.400000
vt 1.000000 0.700000
vt 0.950000 0.700000
vt 0.975000 0.000000
vt 0.975000 1.000000
vt 0.900000 0.700000
vt 0.900000 0.600000
vt 0.925000 1.000000
vt 0.900000 0.900000
vt 0.900000 0.300000
vt 0.900000 0.200000
vt 0.900000 0.500000
vt 0.900000 0.800000
vt 0.900000 0.100000
vt 0.900000 0.400000
vt 0.925000 0.000000
vt 0.850000 0.400000
vt 0.850000 0.300000
vt 0.850000 0.700000
vt 0.850000 0.600000
vt 0.875000 1.000000
vt 0.850000 0.900000
vt 0.850000 0.200000
vt 0.850000 0.500000
vt 0.850000 0.800000
vt 0.850000 0.100000
vt 0.875000 0.000000
vt 0.800000 0.800000
vt 0.800000 0.700000
vt 0.825000 0.000000
vt 0.800000 0.100000
vt 0.800000 0.400000
vt 0.800000 0.300000
vt 0.800000 0.600000
vt 0.825000 1.000000
vt 0.800000 0.900000
vt 0.800000 0.200000
vt 0.800000 0.500000
vt 0.775000 0.000000
vt 0.775000 1.000000
vn 0.1546 -0.1546 -0.9758
vn 0.1113 0.7027 -0.7027
vn 0.0248 -0.9874 -0.1564
vn 0.1397 -0.4495 -0.8823
vn 0.1397 0.4495 -0.8823
vn 0.0248 0.9874 -0.1564
vn 0.1113 -0.7027 -0.7027
vn 0.1546 0.1546 -0.9758
vn 0.0717 0.8887 -0.4528
vn 0.0717 -0.8887 -0.4528
vn 0.3230 0.7027 -0.6339
vn 0.0719 -0.9874 -0.1411
vn 0.4055 -0.4495 -0.7959
vn 0.4055 0.4495 -0.7959
vn 0.0719 0.9874 -0.1411
vn 0.3230 -0.7027 -0.6339
vn 0.4485 0.1546 -0.8803
vn 0.2081 0.8887 -0.4085
vn 0.2081 -0.8887 -0.4085
vn 0.4485 -0.1546 -0.8803
vn 0.3242 -0.8887 -0.3242
vn 0.6986 -0.1546 -0.6986
vn 0.5031 0.7027 -0.5031
vn 0.1120 -0.9874 -0.1120
vn 0.6316 -0.4495 -0.6316
vn 0.6316 0.4495 -0.6316
vn 0.1120 0.9874 -0.1120
vn 0.5031 -0.7027 -0.5031
vn 0.6986 0.1546 -0.6986
vn 0.3242 0.8887 -0.3242
vn 0.8803 0.1546 -0.4485
vn 0.4085 0.8887 -0.2081
vn 0.4085 -0.8887 -0.2081
vn 0.8803 -0.1546 -0.4485
vn 0.6339 0.7027 -0.3230
vn 0.1411 -0.9874 -0.0719
vn 0.7959 -0.4495 -0.4055
vn 0.7959 0.4495 -0.4055
vn 0.1411 0.9874 -0.0719
vn 0.6339 -0.7027 -0.3230
vn 0.1564 0.9874 -0.0248
vn 0.7027 -0.7027 -0.1113
vn 0.9758 0.1546 -0.1546
vn 0.4528 0.8887 -0.0717
vn 0.4528 -0.8887 -0.0717
vn 0.9758 -0.1546 -0.1546
vn 0.7027 0.7027 -0.1113
vn 0.1564 -0.9874 -0.0248
vn 0.8823 -0.4495 -0.1397
vn 0.8823 0.4495 -0.1397
vn 0.8823 0.4495 0.1397
vn 0.1564 0.9874 0.0248
vn 0.7027 -0.7027 0.1113
vn 0.9758 0.1546 0.1546
vn 0.4528 0.8887 0.0717
vn 0.4528 -0.8887 0.0717
vn 0.9758 -0.1546 0.1546
vn 0.7027 0.7027 0.1113
vn 0.1564 -0.9874 0.0248
vn 0.8823 -0.4495 0.1397
vn 0.1411 -0.9874 0.0719
vn 0.7959 -0.4495 0.4055
vn 0.7959 0.4495 0.4055
vn 0.1411 0.9874 0.0719
vn 0.6339 -0.7027 0.3230
vn 0.8803 0.1546 0.4485
vn 0.4085 0.8887 0.2081
vn 0.4085 -0.8887 0.2081
vn 0.8803 -0.1546 0.4485
vn 0.6339 0.7027 0.3230
vn 0.6986 -0.1546 0.6986
vn 0.5031 0.7027 0.5031
vn 0.1120 -0.9874 0.1120
vn 0.6316 -0.4495 0.6316
vn 0.6316 0.4495 0.6316
vn 0.1120 0.9874 0.1120
vn 0.5031 -0.7027 0.5031
vn 0.6986 0.1546 0.6986
vn 0.3242 0.8887 0.3242
vn 0.3242 -0.8887 0.3242
vn 0.2081 0.8887 0.4085
vn 0.2081 -0.8887 0.4085
vn 0.4485 -0.1546 0.8803
vn 0.3230 0.7027 0.6339
vn 0.0719 -0.9874 0.1411
vn 0.4055 -0.4495 0.7959
vn 0.4055 0.4495 0.7959
vn 0.0719 0.9874 0.1411
vn 0.3230 -0.7027 0.6339
vn 0.4485 0.1546 0.8803
vn 0.1546 0.1546 0.9758
vn 0.0717 0.8887 0.4528
vn 0.0717 -0.8887 0.4528
vn 0.1546 -0.1546 0.9758
vn 0.1113 0.7027 0.7027
vn 0.0248 -0.9874 0.1564
vn 0.1397 -0.4495 0.8823
vn 0.1397 0.4495 0.8823
vn 0.0248 0.9874 0.1564
vn 0.1113 -0.7027 0.7027
vn -0.0248 0.9874 0.1564
vn -0.1113 -0.7027 0.7027
vn -0.1546 0.1546 0.9758
vn -0.0717 0.8887 0.4528
vn -0.0717 -0.8887 0.4528
vn -0.1546 -0.1546 0.9758
vn -0.1113 0.7027 0.7027
vn -0.0248 -0.9874 0.1564
vn -0.1397 -0.4495 0.8823
vn -0.1397 0.4495 0.8823
vn -0.4055 -0.4495 0.7959
vn -0.4055 0.4495 0.7959
vn -0.0719 0.9874 0.1411
vn -0.3230 -0.7027 0.6339
vn -0.4485 0.1546 0.8803
vn -0.2081 0.8887 0.4085
vn -0.2081 -0.8887 0.4085
vn -0.4485 -0.1546 0.8803
vn -0.3230 0.7027 0.6339
vn -0.0719 -0.9874 0.1411
vn -0.5031 0.7027 0.5031
vn -0.1120 -0.9874 0.1120
vn -0.6316 -0.4495 0.6316
vn -0.6316 0.4495 0.6316
vn -0.1120 0.9874 0.1120
vn -0.5031 -0.7027 0.5031
vn -0.6986 0.1546 0.6986
vn -0.3242 0.8887 0.3242
vn -0.3242 -0.8887 0.3242
vn -0.6986 -0.1546 0.6986
vn -0.8803 -0.1546 0.4485
vn -0.6339 0.7027 0.3230
vn -0.1411 -0.9874 0.0719
vn -0.7959 -0.4495 0.4055
vn -0.7959 0.4495 0.4055
vn -0.1411 0.9874 0.0719
vn -0.6339 -0.7027 0.3230
vn -0.8803 0.1546 0.4485
vn -0.4085 0.8887 0.2081
vn -0.4085 -0.8887 0.2081
vn -0.4528 0.8887 0.0717
vn -0.4528 -0.8887 0.0717
vn -0.9758 -0.1546 0.1546
vn -0.7027 0.7027 0.1113
vn -0.1564 -0.9874 0.0248
vn -0.8823 -0.4495 0.1397
vn -0.8823 0.4495 0.1397
vn -0.1564 0.9874 0.0248
vn -0.7027 -0.7027 0.1113
vn -0.9758 0.1546 0.1546
vn -0.7027 -0.7027 -0.1113
vn -0.9758 0.1546 -0.1546
vn -0.4528 0.8887 -0.0717
vn -0.4528 -0.8887 -0.0717
vn -0.9758 -0.1546 -0.1546
vn -0.7027 0.7027 -0.1113
vn -0.1564 -0.9874 -0.0248
vn -0.8823 -0.4495 -0.1397
vn -0.8823 0.4495 -0.1397
vn -0.1564 0.9874 -0.0248
vn -0.7959 0.4495 -0.4055
vn -0.1411 0.9874 -0.0719
vn -0.6339 -0.7027 -0.3230
vn -0.8803 0.1546 -0.4485
vn -0.4085 0.8887 -0.2081
vn -0.4085 -0.8887 -0.2081
vn -0.8803 -0.1546 -0.4485
vn -0.6339 0.7027 -0.3230
vn -0.1411 -0.9874 -0.0719
vn -0.7959 -0.4495 -0.4055
vn -0.6316 -0.4495 -0.6316
vn -0.6316 0.4495 -0.6316
vn -0.1120 0.9874 -0.1120
vn -0.5031 -0.7027 -0.5031
vn -0.6986 0.1546 -0.6986
vn -0.3242 0.8887 -0.3242
vn -0.3242 -0.8887 -0.3242
vn -0.6986 -0.1546 -0.6986
vn -0.5031 0.7027 -0.5031
vn -0.1120 -0.9874 -0.1120
vn -0.3230 0.7027 -0.6339
vn -0.0719 -0.9874 -0.1411
vn -0.4055 -0.4495 -0.7959
vn -0.4055 0.4495 -0.7959
vn -0.0719 0.9874 -0.1411
vn -0.3230 -0.7027 -0.6339
vn -0.4485 0.1546 -0.8803
vn -0.2081 0.8887 -0.4085
vn -0.2081 -0.8887 -0.4085
vn -0.4485 -0.1546 -0.8803
vn -0.0717 -0.8887 -0.4528
vn -0.1546 -0.1546 -0.9758
vn -0.1113 0.7027 -0.7027
vn -0.0248 -0.9874 -0.1564
vn -0.1397 -0.4495 -0.8823
vn -0.1397 0.4495 -0.8823
vn -0.0248 0.9874 -0.1564
vn -0.1113 -0.7027 -0.7027
vn -0.1546 0.1546 -0.9758
vn -0.0717 0.8887 -0.4528
g Sphere_Sphere_None
usemtl None
s off
f 3/1/1 181/2/1 10/3/1 11/4/1
f 180/5/2 179/6/2 7/7/2 8/8/2
f 151/9/3 5/10/3 14/11/3
f 182/12/4 3/1/4 11/4/4 12/13/4
f 2/14/5 180/5/5 8/8/5 9/15/5
f 1/16/6 114/17/6 6/18/6
f 4/19/7 182/12/7 12/13/7 13/20/7
f 181/2/8 2/14/8 9/15/8 10/3/8
f 179/6/9 1/16/9 6/18/9 7/7/9
f 5/10/10 4/19/10 13/20/10 14/11/10
f 8/8/11 7/7/11 16/21/11 17/22/11
f 151/23/12 14/11/12 23/24/12
f 12/13/13 11/4/13 20/25/13 21/26/13
f 9/15/14 8/8/14 17/22/14 18/27/14
f 6/18/15 114/28/15 15/29/15
f 13/20/16 12/13/16 21/26/16 22/30/16
f 10/3/17 9/15/17 18/27/17 19/31/17
f 7/7/18 6/18/18 15/29/18 16/21/18
f 14/11/19 13/20/19 22/30/19 23/24/19
f 11/4/20 10/3/20 19/31/20 20/25/20
f 23/24/21 22/30/21 31/32/21 32/33/21
f 20/25/22 19/31/22 28/34/22 29/35/22
f 17/22/23 16/21/23 25/36/23 26/37/23
f 151/38/24 23/24/24 32/33/24
f 21/26/25 20/25/25 29/35/25 30/39/25
f 18/27/26 17/22/26 26/37/26 27/40/26
f 15/29/27 114/41/27 24/42/27
f 22/30/28 21/26/28 30/39/28 31/32/28
f 19/31/29 18/27/29 27/40/29 28/34/29
f 16/21/30 15/29/30 24/42/30 25/36/30
f 28/34/31 27/40/31 36/43/31 37/44/31
f 25/36/32 24/42/32 33/45/32 34/46/32
f 32/33/33 31/32/33 40/47/33 41/48/33
f 29/35/34 28/34/34 37/44/34 38/49/34
f 26/37/35 25/36/35 34/46/35 35/50/35
f 151/51/36 32/33/36 41/48/36
f 30/39/37 29/35/37 38/49/37 39/52/37
f 27/40/38 26/37/38 35/50/38 36/43/38
f 24/42/39 114/53/39 33/45/39
f 31/32/40 30/39/40 39/52/40 40/47/40
f 33/45/41 114/54/41 42/55/41
f 40/47/42 39/52/42 48/56/42 49/57/42
f 37/44/43 36/43/43 45/58/43 46/59/43
f 34/46/44 33/45/44 42/55/44 43/60/44
f 41/48/45 40/47/45 49/57/45 50/61/45
f 38/49/46 37/44/46 46/59/46 47/62/46
f 35/50/47 34/46/47 43/60/47 44/63/47
f 151/64/48 41/48/48 50/61/48
f 39/52/49 38/49/49 47/62/49 48/56/49
f 36/43/50 35/50/50 44/63/50 45/58/50
f 45/58/51 44/63/51 53/65/51 54/66/51
f 42/55/52 114/67/52 51/68/52
f 49/57/53 48/56/53 57/69/53 58/70/53
f 46/59/54 45/58/54 54/66/54 55/71/54
f 43/60/55 42/55/55 51/68/55 52/72/55
f 50/61/56 49/57/56 58/70/56 59/73/56
f 47/62/57 46/59/57 55/71/57 56/74/57
f 44/63/58 43/60/58 52/72/58 53/65/58
f 151/75/59 50/61/59 59/73/59
f 48/56/60 47/62/60 56/74/60 57/69/60
f 151/76/61 59/73/61 68/77/61
f 57/69/62 56/74/62 65/78/62 66/79/62
f 54/66/63 53/65/63 62/80/63 63/81/63
f 51/68/64 114/82/64 60/83/64
f 58/70/65 57/69/65 66/79/65 67/84/65
f 55/71/66 54/66/66 63/81/66 64/85/66
f 52/72/67 51/68/67 60/83/67 61/86/67
f 59/73/68 58/70/68 67/84/68 68/77/68
f 56/74/69 55/71/69 64/85/69 65/78/69
f 53/65/70 52/72/70 61/86/70 62/80/70
f 65/78/71 64/85/71 73/87/71 74/88/71
f 62/80/72 61/86/72 70/89/72 71/90/72
f 151/91/73 68/77/73 77/92/73
f 66/79/74 65/78/74 74/88/74 75/93/74
f 63/81/75 62/80/75 71/90/75 72/94/75
f 60/83/76 114/95/76 69/96/76
f 67/84/77 66/79/77 75/93/77 76/97/77
f 64/85/78 63/81/78 72/94/78 73/87/78
f 61/86/79 60/83/79 69/96/79 70/89/79
f 68/77/80 67/84/80 76/97/80 77/92/80
f 70/89/81 69/96/81 78/98/81 79/99/81
f 77/92/82 76/97/82 85/100/82 86/101/82
f 74/88/83 73/87/83 82/102/83 83/103/83
f 71/90/84 70/89/84 79/99/84 80/104/84
f 151/105/85 77/92/85 86/101/85
f 75/93/86 74/88/86 83/103/86 84/106/86
f 72/94/87 71/90/87 80/104/87 81/107/87
f 69/96/88 114/108/88 78/98/88
f 76/97/89 75/93/89 84/106/89 85/100/89
f 73/87/90 72/94/90 81/107/90 82/102/90
f 82/102/91 81/107/91 90/109/91 91/110/91
f 79/99/92 78/98/92 87/111/92 88/112/92
f 86/101/93 85/100/93 94/113/93 95/114/93
f 83/103/94 82/102/94 91/110/94 92/115/94
f 80/104/95 79/99/95 88/112/95 89/116/95
f 151/117/96 86/101/96 95/114/96
f 84/106/97 83/103/97 92/115/97 93/118/97
f 81/107/98 80/104/98 89/116/98 90/109/98
f 78/98/99 114/119/99 87/111/99
f 85/100/100 84/106/100 93/118/100 94/113/100
f 87/111/101 114/120/101 96/121/101
f 94/113/102 93/118/102 102/122/102 103/123/102
f 91/110/103 90/109/103 99/124/103 100/125/103
f 88/112/104 87/111/104 96/121/104 97/126/104
f 95/114/105 94/113/105 103/123/105 104/127/105
f 92/115/106 91/110/106 100/125/106 101/128/106
f 89/116/107 88/112/107 97/126/107 98/129/107
f 151/130/108 95/114/108 104/127/108
f 93/118/109 92/115/109 101/128/109 102/122/109
f 90/109/110 89/116/110 98/129/110 99/124/110
f 102/122/111 101/128/111 110/131/111 111/132/111
f 99/124/112 98/129/112 107/133/112 108/134/112
f 96/121/113 114/135/113 105/136/113
f 103/123/114 102/122/114 111/132/114 112/137/114
f 100/125/115 99/124/115 108/134/115 109/138/115
f 97/126/116 96/121/116 105/136/116 106/139/116
f 104/127/117 103/123/117 112/137/117 113/140/117
f 101/128/118 100/125/118 109/138/118 110/131/118
f 98/129/119 97/126/119 106/139/119 107/133/119
f 151/141/120 104/127/120 113/140/120
f 107/133/121 106/139/121 116/142/121 117/143/121
f 151/144/122 113/140/122 123/145/122
f 111/132/123 110/131/123 120/146/123 121/147/123
f 108/134/124 107/133/124 117/143/124 118/148/124
f 105/136/125 114/149/125 115/150/125
f 112/137/126 111/132/126 121/147/126 122/151/126
f 109/138/127 108/134/127 118/148/127 119/152/127
f 106/139/128 105/136/128 115/150/128 116/142/128
f 113/140/129 112/137/129 122/151/129 123/145/129
f 110/131/130 109/138/130 119/152/130 120/146/130
f 120/146/131 119/152/131 128/153/131 129/154/131
f 117/143/132 116/142/132 125/155/132 126/156/132
f 151/157/133 123/145/133 132/158/133
f 121/147/134 120/146/134 129/154/134 130/159/134
f 118/148/135 117/143/135 126/156/135 127/160/135
f 115/150/136 114/161/136 124/162/136
f 122/151/137 121/147/137 130/159/137 131/163/137
f 119/152/138 118/148/138 127/160/138 128/153/138
f 116/142/139 115/150/139 124/162/139 125/155/139
f 123/145/140 122/151/140 131/163/140 132/158/140
f 125/155/141 124/162/141 133/164/141 134/165/141
f 132/158/142 131/163/142 140/166/142 141/167/142
f 129/154/143 128/153/143 137/168/143 138/169/143
f 126/156/144 125/155/144 134/165/144 135/170/144
f 151/171/145 132/158/145 141/167/145
f 130/159/146 129/154/146 138/169/146 139/172/146
f 127/160/147 126/156/147 135/170/147 136/173/147
f 124/162/148 114/174/148 133/164/148
f 131/163/149 130/159/149 139/172/149 140/166/149
f 128/153/150 127/160/150 136/173/150 137/168/150
f 140/175/151 139/176/151 148/177/151 149/178/151
f 137/179/152 136/180/152 145/181/152 146/182/152
f 134/183/153 133/184/153 142/185/153 143/186/153
f 141/187/154 140/175/154 149/178/154 150/188/154
f 138/189/155 137/179/155 146/182/155 147/190/155
f 135/191/156 134/183/156 143/186/156 144/192/156
f 151/193/157 141/187/157 150/188/157
f 139/176/158 138/189/158 147/190/158 148/177/158
f 136/180/159 135/191/159 144/192/159 145/181/159
f 133/184/160 114/194/160 142/185/160
f 145/181/161 144/192/161 154/195/161 155/196/161
f 142/185/162 114/197/162 152/198/162
f 149/178/163 148/177/163 158/199/163 159/200/163
f 146/182/164 145/181/164 155/196/164 156/201/164
f 143/186/165 142/185/165 152/198/165 153/202/165
f 150/188/166 149/178/166 159/200/166 160/203/166
f 147/190/167 146/182/167 156/201/167 157/204/167
f 144/192/168 143/186/168 153/202/168 154/195/168
f 151/205/169 150/188/169 160/203/169
f 148/177/170 147/190/170 157/204/170 158/199/170
f 158/199/171 157/204/171 166/206/171 167/207/171
f 155/196/172 154/195/172 163/208/172 164/209/172
f 152/198/173 114/210/173 161/211/173
f 159/200/174 158/199/174 167/207/174 168/212/174
f 156/201/175 155/196/175 164/209/175 165/213/175
f 153/202/176 152/198/176 161/211/176 162/214/176
f 160/203/177 159/200/177 168/212/177 169/215/177
f 157/204/178 156/201/178 165/213/178 166/206/178
f 154/195/179 153/202/179 162/214/179 163/208/179
f 151/216/180 160/203/180 169/215/180
f 163/208/181 162/214/181 171/217/181 172/218/181
f 151/219/182 169/215/182 178/220/182
f 167/207/183 166/206/183 175/221/183 176/222/183
f 164/209/184 163/208/184 172/218/184 173/223/184
f 161/211/185 114/224/185 170/225/185
f 168/212/186 167/207/186 176/222/186 177/226/186
f 165/213/187 164/209/187 173/223/187 174/227/187
f 162/214/188 161/211/188 170/225/188 171/217/188
f 169/215/189 168/212/189 177/226/189 178/220/189
f 166/206/190 165/213/190 174/227/190 175/221/190
f 178/220/191 177/226/191 4/19/191 5/10/191
f 175/221/192 174/227/192 181/2/192 3/1/192
f 172/218/193 171/217/193 179/6/193 180/5/193
f 151/228/194 178/220/194 5/10/194
f 176/222/195 175/221/195 3/1/195 182/12/195
f 173/223/196 172/218/196 180/5/196 2/14/196
f 170/225/197 114/229/197 1/16/197
f 177/226/198 176/222/198 182/12/198 4/19/198
f 174/227/199 173/223/199 2/14/199 181/2/199
f 171/217/200 170/225/200 1/16/200 179/6/200
