# Blender v2.91.0 OBJ File: ''
# www.blender.org
mtllib sphere-98.mtl
o Sphere
v 0.000000 0.900969 -0.433884
v 0.000000 -0.900969 -0.433884
v 0.188255 0.900969 -0.390916
v 0.339224 0.623490 -0.704406
v 0.423005 0.222521 -0.878380
v 0.423005 -0.222521 -0.878380
v 0.339224 -0.623490 -0.704406
v 0.188255 -0.900969 -0.390916
v 0.339224 0.900969 -0.270522
v 0.611260 0.623490 -0.487464
v 0.762229 0.222521 -0.607858
v 0.762229 -0.222521 -0.607858
v 0.611260 -0.623490 -0.487464
v 0.339224 -0.900969 -0.270522
v 0.423005 0.900969 -0.096548
v 0.762229 0.623490 -0.173974
v 0.950484 0.222521 -0.216942
v 0.950484 -0.222521 -0.216942
v 0.762229 -0.623490 -0.173974
v 0.423005 -0.900969 -0.096548
v 0.423005 0.900969 0.096548
v 0.762229 0.623490 0.173974
v 0.950484 0.222521 0.216942
v 0.950484 -0.222521 0.216942
v 0.762229 -0.623490 0.173974
v 0.423005 -0.900969 0.096548
v 0.339224 0.900969 0.270522
v 0.611260 0.623490 0.487464
v 0.762229 0.222521 0.607857
v 0.762229 -0.222521 0.607857
v 0.611260 -0.623490 0.487464
v 0.339224 -0.900969 0.270522
v 0.188255 0.900969 0.390915
v 0.339224 0.623490 0.704406
v 0.423005 0.222521 0.878379
v 0.423005 -0.222521 0.878379
v 0.339224 -0.623490 0.704406
v 0.188255 -0.900969 0.390916
v -0.000000 0.900969 0.433883
v -0.000000 0.623490 0.781831
v -0.000000 0.222521 0.974928
v -0.000000 -0.222521 0.974928
v -0.000000 -0.623490 0.781831
v -0.000000 -0.900969 0.433883
v -0.188255 0.900969 0.390915
v -0.339224 0.623490 0.704405
v -0.423005 0.222521 0.878379
v -0.423005 -0.222521 0.878379
v -0.339224 -0.623490 0.704405
v -0.188255 -0.900969 0.390915
v -0.339224 0.900969 0.270522
v -0.611260 0.623490 0.487464
v -0.762229 0.222521 0.607857
v -0.762229 -0.222521 0.607857
v -0.611260 -0.623490 0.487464
v -0.339224 -0.900969 0.270522
v -0.423005 0.900969 0.096548
v -0.762229 0.623490 0.173973
v -0.950484 0.222521 0.216942
v -0.950484 -0.222521 0.216942
v -0.762229 -0.623490 0.173973
v -0.423005 -0.900969 0.096548
v -0.423005 0.900969 -0.096548
v -0.762229 0.623490 -0.173974
v -0.950484 0.222521 -0.216942
v -0.950484 -0.222521 -0.216942
v -0.762229 -0.623490 -0.173974
v -0.423005 -0.900969 -0.096548
v 0.000000 -1.000000 -0.000000
v -0.339224 0.900969 -0.270522
v -0.611260 0.623490 -0.487464
v -0.762229 0.222521 -0.607858
v -0.762229 -0.222521 -0.607858
v -0.611260 -0.623490 -0.487464
v -0.339224 -0.900969 -0.270522
v -0.188255 0.900969 -0.390916
v -0.339224 0.623490 -0.704406
v -0.423005 0.222521 -0.878380
v -0.423005 -0.222521 -0.878380
v -0.339224 -0.623490 -0.704406
v -0.188255 -0.900969 -0.390916
v -0.000000 1.000000 -0.000000
v 0.000000 0.623490 -0.781831
v 0.000000 0.222521 -0.974928
v 0.000000 -0.222521 -0.974928
v 0.000000 -0.623490 -0.781831
vt 0.678572 0.000000
vt 0.714286 0.142857
vt 0.642857 0.142857
vt 0.714286 0.285714
vt 0.714286 0.428571
vt 0.642857 0.428571
vt 0.642857 0.285714
vt 0.714286 0.571429
vt 0.714286 0.714286
vt 0.642857 0.714286
vt 0.642857 0.571429
vt 0.714286 0.857143
vt 0.678572 1.000000
vt 0.642857 0.857143
vt 0.571429 0.857143
vt 0.571429 0.714286
vt 0.607143 0.000000
vt 0.571429 0.142857
vt 0.571429 0.428571
vt 0.571429 0.285714
vt 0.571429 0.571429
vt 0.607143 1.000000
vt 0.535714 0.000000
vt 0.500000 0.142857
vt 0.500000 0.428571
vt 0.500000 0.285714
vt 0.500000 0.714286
vt 0.500000 0.571429
vt 0.535714 1.000000
vt 0.500000 0.857143
vt 0.428572 0.428571
vt 0.428572 0.285714
vt 0.428572 0.714286
vt 0.428572 0.571429
vt 0.464286 1.000000
vt 0.428572 0.857143
vt 0.428572 0.142857
vt 0.464286 0.000000
vt 0.392857 1.000000
vt 0.357143 0.857143
vt 0.357143 0.285714
vt 0.357143 0.142857
vt 0.357143 0.571429
vt 0.357143 0.428571
vt 0.357143 0.714286
vt 0.392857 0.000000
vt 0.285714 0.285714
vt 0.285714 0.142857
vt 0.285714 0.571429
vt 0.285714 0.428571
vt 0.285714 0.857143
vt 0.285714 0.714286
vt 0.321429 0.000000
vt 0.321429 1.000000
vt 0.214286 0.571429
vt 0.214286 0.428571
vt 0.214286 0.857143
vt 0.214286 0.714286
vt 0.250000 0.000000
vt 0.214286 0.142857
vt 0.214286 0.285714
vt 0.250000 1.000000
vt 0.178571 0.000000
vt 0.142857 0.142857
vt 0.142857 0.428571
vt 0.142857 0.285714
vt 0.142857 0.714286
vt 0.142857 0.571429
vt 0.178571 1.000000
vt 0.142857 0.857143
vt 0.107143 0.000000
vt 0.071429 0.142857
vt 0.071429 0.428571
vt 0.071429 0.285714
vt 0.071429 0.714286
vt 0.071429 0.571429
vt 0.107143 1.000000
vt 0.071429 0.857143
vt 0.000000 0.714286
vt 0.000000 0.571429
vt 0.035714 1.000000
vt 0.000000 0.857143
vt 0.000000 0.285714
vt 0.000000 0.142857
vt 0.000000 0.428571
vt 0.035714 0.000000
vt 1.000000 0.142857
vt 1.000000 0.285714
vt 0.928571 0.285714
vt 0.928571 0.142857
vt 1.000000 0.428571
vt 1.000000 0.571429
vt 0.928571 0.571429
vt 0.928571 0.428571
vt 1.000000 0.714286
vt 1.000000 0.857143
vt 0.928571 0.857143
vt 0.928571 0.714286
vt 0.964286 0.000000
vt 0.964286 1.000000
vt 0.857143 0.285714
vt 0.857143 0.142857
vt 0.857143 0.571429
vt 0.857143 0.428571
vt 0.857143 0.857143
vt 0.857143 0.714286
vt 0.892857 0.000000
vt 0.892857 1.000000
vt 0.785714 0.857143
vt 0.785714 0.714286
vt 0.821429 0.000000
vt 0.785714 0.142857
vt 0.785714 0.428571
vt 0.785714 0.285714
vt 0.785714 0.571429
vt 0.821429 1.000000
vt 0.750000 0.000000
vt 0.750000 1.000000
vn 0.0507 -0.9737 -0.2222
vn 0.2014 -0.4250 -0.8825
vn 0.2014 0.4250 -0.8825
vn 0.0507 0.9737 -0.2222
vn 0.1409 -0.7740 -0.6173
vn 0.2225 0.0000 -0.9749
vn 0.1409 0.7740 -0.6173
vn 0.3948 0.7740 -0.4950
vn 0.1421 -0.9737 -0.1782
vn 0.5644 -0.4250 -0.7077
vn 0.5644 0.4250 -0.7077
vn 0.1421 0.9737 -0.1782
vn 0.3948 -0.7740 -0.4950
vn 0.6235 0.0000 -0.7818
vn 0.2054 -0.9737 -0.0989
vn 0.8156 -0.4250 -0.3928
vn 0.8156 0.4250 -0.3928
vn 0.2054 0.9737 -0.0989
vn 0.5704 -0.7740 -0.2747
vn 0.9010 0.0000 -0.4339
vn 0.5704 0.7740 -0.2747
vn 0.9052 -0.4250 0.0000
vn 0.9052 0.4250 0.0000
vn 0.2279 0.9737 0.0000
vn 0.6331 -0.7740 0.0000
vn 1.0000 0.0000 0.0000
vn 0.6331 0.7740 0.0000
vn 0.2279 -0.9737 0.0000
vn 0.2054 0.9737 0.0989
vn 0.5704 -0.7740 0.2747
vn 0.9010 0.0000 0.4339
vn 0.5704 0.7740 0.2747
vn 0.2054 -0.9737 0.0989
vn 0.8156 -0.4250 0.3928
vn 0.8156 0.4250 0.3928
vn 0.3948 -0.7740 0.4950
vn 0.6235 0.0000 0.7818
vn 0.3948 0.7740 0.4950
vn 0.1421 -0.9737 0.1782
vn 0.5644 -0.4250 0.7077
vn 0.5644 0.4250 0.7077
vn 0.1421 0.9737 0.1782
vn 0.2225 0.0000 0.9749
vn 0.1409 0.7740 0.6173
vn 0.0507 -0.9737 0.2222
vn 0.2014 -0.4250 0.8825
vn 0.2014 0.4250 0.8825
vn 0.0507 0.9737 0.2222
vn 0.1409 -0.7740 0.6173
vn -0.0507 -0.9737 0.2222
vn -0.2014 -0.4250 0.8825
vn -0.2014 0.4250 0.8825
vn -0.0507 0.9737 0.2222
vn -0.1409 -0.7740 0.6173
vn -0.2225 0.0000 0.9749
vn -0.1409 0.7740 0.6173
vn -0.1421 -0.9737 0.1782
vn -0.5644 -0.4250 0.7077
vn -0.5644 0.4250 0.7077
vn -0.1421 0.9737 0.1782
vn -0.3948 -0.7740 0.4950
vn -0.6235 0.0000 0.7818
vn -0.3948 0.7740 0.4950
vn -0.8156 0.4250 0.3928
vn -0.2054 0.9737 0.0989
vn -0.5704 -0.7740 0.2747
vn -0.9010 0.0000 0.4339
vn -0.5704 0.7740 0.2747
vn -0.2054 -0.9737 0.0989
vn -0.8156 -0.4250 0.3928
vn -0.6331 -0.7740 -0.0000
vn -1.0000 0.0000 -0.0000
vn -0.6331 0.7740 -0.0000
vn -0.2279 -0.9737 -0.0000
vn -0.9052 -0.4250 -0.0000
vn -0.9052 0.4250 -0.0000
vn -0.2279 0.9737 0.0000
vn -0.5704 -0.7740 -0.2747
vn -0.9010 0.0000 -0.4339
vn -0.5704 0.7740 -0.2747
vn -0.2054 -0.9737 -0.0989
vn -0.8156 -0.4250 -0.3928
vn -0.8156 0.4250 -0.3928
vn -0.2054 0.9737 -0.0989
vn -0.3948 0.7740 -0.4950
vn -0.1421 -0.9737 -0.1782
vn -0.5644 -0.4250 -0.7077
vn -0.5644 0.4250 -0.7077
vn -0.1421 0.9737 -0.1782
vn -0.3948 -0.7740 -0.4950
vn -0.6235 0.0000 -0.7818
vn -0.0507 -0.9737 -0.2222
vn -0.2014 -0.4250 -0.8825
vn -0.2014 0.4250 -0.8825
vn -0.0507 0.9737 -0.2222
vn -0.1409 -0.7740 -0.6173
vn -0.2225 0.0000 -0.9749
vn -0.1409 0.7740 -0.6173
g Sphere_Sphere_None
usemtl None
s off
f 69/1/1 2/2/1 8/3/1
f 86/4/2 85/5/2 6/6/2 7/7/2
f 84/8/3 83/9/3 4/10/3 5/11/3
f 1/12/4 82/13/4 3/14/4
f 2/2/5 86/4/5 7/7/5 8/3/5
f 85/5/6 84/8/6 5/11/6 6/6/6
f 83/9/7 1/12/7 3/14/7 4/10/7
f 4/10/8 3/14/8 9/15/8 10/16/8
f 69/17/9 8/3/9 14/18/9
f 7/7/10 6/6/10 12/19/10 13/20/10
f 5/11/11 4/10/11 10/16/11 11/21/11
f 3/14/12 82/22/12 9/15/12
f 8/3/13 7/7/13 13/20/13 14/18/13
f 6/6/14 5/11/14 11/21/14 12/19/14
f 69/23/15 14/18/15 20/24/15
f 13/20/16 12/19/16 18/25/16 19/26/16
f 11/21/17 10/16/17 16/27/17 17/28/17
f 9/15/18 82/29/18 15/30/18
f 14/18/19 13/20/19 19/26/19 20/24/19
f 12/19/20 11/21/20 17/28/20 18/25/20
f 10/16/21 9/15/21 15/30/21 16/27/21
f 19/26/22 18/25/22 24/31/22 25/32/22
f 17/28/23 16/27/23 22/33/23 23/34/23
f 15/30/24 82/35/24 21/36/24
f 20/24/25 19/26/25 25/32/25 26/37/25
f 18/25/26 17/28/26 23/34/26 24/31/26
f 16/27/27 15/30/27 21/36/27 22/33/27
f 69/38/28 20/24/28 26/37/28
f 21/36/29 82/39/29 27/40/29
f 26/37/30 25/32/30 31/41/30 32/42/30
f 24/31/31 23/34/31 29/43/31 30/44/31
f 22/33/32 21/36/32 27/40/32 28/45/32
f 69/46/33 26/37/33 32/42/33
f 25/32/34 24/31/34 30/44/34 31/41/34
f 23/34/35 22/33/35 28/45/35 29/43/35
f 32/42/36 31/41/36 37/47/36 38/48/36
f 30/44/37 29/43/37 35/49/37 36/50/37
f 28/45/38 27/40/38 33/51/38 34/52/38
f 69/53/39 32/42/39 38/48/39
f 31/41/40 30/44/40 36/50/40 37/47/40
f 29/43/41 28/45/41 34/52/41 35/49/41
f 27/40/42 82/54/42 33/51/42
f 36/50/43 35/49/43 41/55/43 42/56/43
f 34/52/44 33/51/44 39/57/44 40/58/44
f 69/59/45 38/48/45 44/60/45
f 37/47/46 36/50/46 42/56/46 43/61/46
f 35/49/47 34/52/47 40/58/47 41/55/47
f 33/51/48 82/62/48 39/57/48
f 38/48/49 37/47/49 43/61/49 44/60/49
f 69/63/50 44/60/50 50/64/50
f 43/61/51 42/56/51 48/65/51 49/66/51
f 41/55/52 40/58/52 46/67/52 47/68/52
f 39/57/53 82/69/53 45/70/53
f 44/60/54 43/61/54 49/66/54 50/64/54
f 42/56/55 41/55/55 47/68/55 48/65/55
f 40/58/56 39/57/56 45/70/56 46/67/56
f 69/71/57 50/64/57 56/72/57
f 49/66/58 48/65/58 54/73/58 55/74/58
f 47/68/59 46/67/59 52/75/59 53/76/59
f 45/70/60 82/77/60 51/78/60
f 50/64/61 49/66/61 55/74/61 56/72/61
f 48/65/62 47/68/62 53/76/62 54/73/62
f 46/67/63 45/70/63 51/78/63 52/75/63
f 53/76/64 52/75/64 58/79/64 59/80/64
f 51/78/65 82/81/65 57/82/65
f 56/72/66 55/74/66 61/83/66 62/84/66
f 54/73/67 53/76/67 59/80/67 60/85/67
f 52/75/68 51/78/68 57/82/68 58/79/68
f 69/86/69 56/72/69 62/84/69
f 55/74/70 54/73/70 60/85/70 61/83/70
f 62/87/71 61/88/71 67/89/71 68/90/71
f 60/91/72 59/92/72 65/93/72 66/94/72
f 58/95/73 57/96/73 63/97/73 64/98/73
f 69/99/74 62/87/74 68/90/74
f 61/88/75 60/91/75 66/94/75 67/89/75
f 59/92/76 58/95/76 64/98/76 65/93/76
f 57/96/77 82/100/77 63/97/77
f 68/90/78 67/89/78 74/101/78 75/102/78
f 66/94/79 65/93/79 72/103/79 73/104/79
f 64/98/80 63/97/80 70/105/80 71/106/80
f 69/107/81 68/90/81 75/102/81
f 67/89/82 66/94/82 73/104/82 74/101/82
f 65/93/83 64/98/83 71/106/83 72/103/83
f 63/97/84 82/108/84 70/105/84
f 71/106/85 70/105/85 76/109/85 77/110/85
f 69/111/86 75/102/86 81/112/86
f 74/101/87 73/104/87 79/113/87 80/114/87
f 72/103/88 71/106/88 77/110/88 78/115/88
f 70/105/89 82/116/89 76/109/89
f 75/102/90 74/101/90 80/114/90 81/112/90
f 73/104/91 72/103/91 78/115/91 79/113/91
f 69/117/92 81/112/92 2/2/92
f 80/114/93 79/113/93 85/5/93 86/4/93
f 78/115/94 77/110/94 83/9/94 84/8/94
f 76/109/95 82/118/95 1/12/95
f 81/112/96 80/114/96 86/4/96 2/2/96
f 79/113/97 78/115/97 84/8/97 85/5/97
f 77/110/98 76/109/98 1/12/98 83/9/98
