# Blender v2.91.0 OBJ File: ''
# www.blender.org
mtllib testCubeAllSides.mtl
o Cube
v 1.000000 1.000000 -1.000000
v 1.000000 -1.000000 -1.000000
v 1.000000 1.000000 1.000000
v 1.000000 -1.000000 1.000000
v -1.000000 1.000000 -1.000000
v -1.000000 -1.000000 -1.000000
v -1.000000 1.000000 1.000000
v -1.000000 -1.000000 1.000000
v 0.000000 1.400000 0.000000
v 0.000000 0.000000 1.400000
v -1.400000 0.000000 0.000000
v 0.000000 -1.400000 0.000000
v 1.400000 0.000000 0.000000
v 0.000000 0.000000 -1.400000
v 0.707107 0.000000 1.000000
v -1.000000 0.000000 0.707107
v 0.000000 -1.000000 -0.707107
v 1.000000 0.000000 -0.707107
v -0.707107 0.000000 -1.000000
v 0.000000 1.000000 -0.707107
v -0.707107 1.000000 0.000000
v 0.000000 1.000000 0.707107
v 0.707107 1.000000 0.000000
v 0.000000 0.707107 1.000000
v -0.707107 0.000000 1.000000
v 0.000000 -0.707107 1.000000
v -1.000000 0.707107 0.000000
v -1.000000 0.000000 -0.707107
v -1.000000 -0.707107 0.000000
v 0.707107 -1.000000 0.000000
v 0.000000 -1.000000 0.707107
v -0.707107 -1.000000 0.000000
v 1.000000 0.707107 0.000000
v 1.000000 0.000000 0.707107
v 1.000000 -0.707107 0.000000
v 0.000000 0.707107 -1.000000
v 0.707107 0.000000 -1.000000
v 0.000000 -0.707107 -1.000000
vt 0.375000 0.000000
vt 0.625000 0.000000
vt 0.500000 0.036612
vt 0.125000 0.500000
vt 0.375000 0.500000
vt 0.250000 0.536612
vt 0.625000 0.500000
vt 0.500000 0.536612
vt 0.375000 0.250000
vt 0.625000 0.250000
vt 0.500000 0.286612
vt 0.875000 0.500000
vt 0.750000 0.536612
vt 0.375000 0.750000
vt 0.625000 0.750000
vt 0.500000 0.786612
vt 0.875000 0.750000
vt 0.838388 0.625000
vt 0.750000 0.713388
vt 0.661612 0.625000
vt 0.625000 1.000000
vt 0.588388 0.875000
vt 0.375000 1.000000
vt 0.500000 0.963388
vt 0.411612 0.875000
vt 0.588388 0.125000
vt 0.500000 0.213388
vt 0.411612 0.125000
vt 0.338388 0.625000
vt 0.125000 0.750000
vt 0.250000 0.713388
vt 0.161612 0.625000
vt 0.588388 0.625000
vt 0.500000 0.713388
vt 0.411612 0.625000
vt 0.588388 0.375000
vt 0.500000 0.463388
vt 0.411612 0.375000
vt 0.500000 0.875000
vt 0.500000 0.125000
vt 0.250000 0.625000
vt 0.500000 0.625000
vt 0.500000 0.375000
vt 0.750000 0.625000
vn -1.0000 0.0000 0.0000
vn 0.0000 -1.0000 0.0000
vn 1.0000 0.0000 0.0000
vn 0.0000 0.0000 -1.0000
vn 0.0000 1.0000 0.0000
vn 0.0000 0.0000 1.0000
vn 0.4873 -0.1427 0.8615
vn 0.4873 0.1427 0.8615
vn -0.8615 -0.1427 0.4873
vn -0.8615 0.1427 0.4873
vn -0.1427 -0.8615 -0.4873
vn 0.1427 -0.8615 -0.4873
vn 0.8615 -0.1427 -0.4873
vn 0.8615 0.1427 -0.4873
vn -0.4873 -0.1427 -0.8615
vn -0.4873 0.1427 -0.8615
vn 0.1427 0.8615 -0.4873
vn -0.1427 0.8615 -0.4873
vn -0.4873 0.8615 -0.1427
vn -0.4873 0.8615 0.1427
vn -0.1427 0.8615 0.4873
vn 0.1427 0.8615 0.4873
vn 0.4873 0.8615 0.1427
vn 0.4873 0.8615 -0.1427
vn 0.1427 0.4873 0.8615
vn -0.1427 0.4873 0.8615
vn -0.4873 0.1427 0.8615
vn -0.4873 -0.1427 0.8615
vn -0.1427 -0.4873 0.8615
vn 0.1427 -0.4873 0.8615
vn -0.8615 0.4873 0.1427
vn -0.8615 0.4873 -0.1427
vn -0.8615 0.1427 -0.4873
vn -0.8615 -0.1427 -0.4873
vn -0.8615 -0.4873 -0.1427
vn -0.8615 -0.4873 0.1427
vn 0.4873 -0.8615 -0.1427
vn 0.4873 -0.8615 0.1427
vn 0.1427 -0.8615 0.4873
vn -0.1427 -0.8615 0.4873
vn -0.4873 -0.8615 0.1427
vn -0.4873 -0.8615 -0.1427
vn 0.8615 0.4873 -0.1427
vn 0.8615 0.4873 0.1427
vn 0.8615 0.1427 0.4873
vn 0.8615 -0.1427 0.4873
vn 0.8615 -0.4873 0.1427
vn 0.8615 -0.4873 -0.1427
vn -0.1427 0.4873 -0.8615
vn 0.1427 0.4873 -0.8615
vn 0.4873 0.1427 -0.8615
vn 0.4873 -0.1427 -0.8615
vn 0.1427 -0.4873 -0.8615
vn -0.1427 -0.4873 -0.8615
g Cube_Cube_Material
usemtl Material
s off
f 8/1/1 7/2/1 16/3/1
f 6/4/2 2/5/2 17/6/2
f 2/5/3 1/7/3 18/8/3
f 6/9/4 5/10/4 19/11/4
f 1/7/5 5/12/5 20/13/5
f 4/14/6 3/15/6 15/16/6
f 5/12/5 7/17/5 21/18/5
f 7/17/5 3/15/5 22/19/5
f 3/15/5 1/7/5 23/20/5
f 3/15/6 7/21/6 24/22/6
f 7/21/6 8/23/6 25/24/6
f 8/23/6 4/14/6 26/25/6
f 7/2/1 5/10/1 27/26/1
f 5/10/1 6/9/1 28/27/1
f 6/9/1 8/1/1 29/28/1
f 2/5/2 4/14/2 30/29/2
f 4/14/2 8/30/2 31/31/2
f 8/30/2 6/4/2 32/32/2
f 1/7/3 3/15/3 33/33/3
f 3/15/3 4/14/3 34/34/3
f 4/14/3 2/5/3 35/35/3
f 5/10/4 1/7/4 36/36/4
f 1/7/4 2/5/4 37/37/4
f 2/5/4 6/9/4 38/38/4
f 3/15/7 10/39/7 15/16/7
f 10/39/8 4/14/8 15/16/8
f 7/2/9 11/40/9 16/3/9
f 11/40/10 8/1/10 16/3/10
f 2/5/11 12/41/11 17/6/11
f 12/41/12 6/4/12 17/6/12
f 1/7/13 13/42/13 18/8/13
f 13/42/14 2/5/14 18/8/14
f 5/10/15 14/43/15 19/11/15
f 14/43/16 6/9/16 19/11/16
f 5/12/17 9/44/17 20/13/17
f 9/44/18 1/7/18 20/13/18
f 7/17/19 9/44/19 21/18/19
f 9/44/20 5/12/20 21/18/20
f 3/15/21 9/44/21 22/19/21
f 9/44/22 7/17/22 22/19/22
f 1/7/23 9/44/23 23/20/23
f 9/44/24 3/15/24 23/20/24
f 7/21/25 10/39/25 24/22/25
f 10/39/26 3/15/26 24/22/26
f 8/23/27 10/39/27 25/24/27
f 10/39/28 7/21/28 25/24/28
f 4/14/29 10/39/29 26/25/29
f 10/39/30 8/23/30 26/25/30
f 5/10/31 11/40/31 27/26/31
f 11/40/32 7/2/32 27/26/32
f 6/9/33 11/40/33 28/27/33
f 11/40/34 5/10/34 28/27/34
f 8/1/35 11/40/35 29/28/35
f 11/40/36 6/9/36 29/28/36
f 4/14/37 12/41/37 30/29/37
f 12/41/38 2/5/38 30/29/38
f 8/30/39 12/41/39 31/31/39
f 12/41/40 4/14/40 31/31/40
f 6/4/41 12/41/41 32/32/41
f 12/41/42 8/30/42 32/32/42
f 3/15/43 13/42/43 33/33/43
f 13/42/44 1/7/44 33/33/44
f 4/14/45 13/42/45 34/34/45
f 13/42/46 3/15/46 34/34/46
f 2/5/47 13/42/47 35/35/47
f 13/42/48 4/14/48 35/35/48
f 1/7/49 14/43/49 36/36/49
f 14/43/50 5/10/50 36/36/50
f 2/5/51 14/43/51 37/37/51
f 14/43/52 1/7/52 37/37/52
f 6/9/53 14/43/53 38/38/53
f 14/43/54 2/5/54 38/38/54
