# Blender v2.91.0 OBJ File: ''
# www.blender.org
mtllib testCubeMoreDetailOneSide.mtl
o Cube
v 1.000000 1.000000 -1.000000
v 1.000000 -1.000000 -1.000000
v 1.000000 1.000000 1.000000
v 1.000000 -1.000000 1.000000
v -1.000000 1.000000 -1.000000
v -1.000000 -1.000000 -1.000000
v -1.000000 1.000000 1.000000
v -1.000000 -1.000000 1.000000
v 1.150429 0.000000 0.000000
v 1.150429 0.000000 -0.707107
v 1.150429 0.707107 0.000000
v 1.150429 0.000000 0.707107
v 1.150429 -0.707107 0.000000
v 1.000000 0.000000 -0.925270
v 1.000000 0.925270 0.000000
v 1.000000 0.000000 0.925270
v 1.000000 -0.925270 0.000000
v 1.000000 0.388234 -0.583726
v 1.000000 -0.388234 -0.583726
v 1.000000 0.583726 0.388234
v 1.000000 0.583726 -0.388234
v 1.000000 -0.388234 0.583726
v 1.000000 0.388234 0.583726
v 1.000000 -0.583726 -0.388234
v 1.000000 -0.583726 0.388234
vt 0.625000 0.500000
vt 0.875000 0.500000
vt 0.875000 0.750000
vt 0.625000 0.750000
vt 0.375000 0.750000
vt 0.625000 1.000000
vt 0.375000 1.000000
vt 0.375000 0.000000
vt 0.625000 0.000000
vt 0.625000 0.250000
vt 0.375000 0.250000
vt 0.125000 0.500000
vt 0.375000 0.500000
vt 0.125000 0.750000
vt 0.615659 0.625000
vt 0.500000 0.740659
vt 0.384341 0.625000
vt 0.500000 0.625000
vt 0.548529 0.552034
vt 0.500000 0.509341
vt 0.451471 0.552034
vt 0.572966 0.673529
vt 0.572966 0.576471
vt 0.451471 0.697966
vt 0.548529 0.697966
vt 0.427034 0.576471
vt 0.427034 0.673529
vt 0.500000 0.536612
vt 0.588388 0.625000
vt 0.500000 0.713388
vt 0.411612 0.625000
vn 0.0000 1.0000 0.0000
vn 0.0000 0.0000 1.0000
vn -1.0000 0.0000 0.0000
vn 0.0000 -1.0000 0.0000
vn 1.0000 0.0000 0.0000
vn 0.0000 0.0000 -1.0000
vn 0.8690 -0.2784 -0.4091
vn 0.8690 0.2784 -0.4091
vn 0.8690 0.4091 -0.2784
vn 0.8690 0.4091 0.2784
vn 0.8690 0.2784 0.4091
vn 0.8690 -0.2784 0.4091
vn 0.8690 -0.4091 0.2784
vn 0.8690 -0.4091 -0.2784
vn 0.8225 -0.0424 -0.5672
vn 0.8225 0.0424 -0.5672
vn 0.8225 0.5672 -0.0424
vn 0.8225 0.5672 0.0424
vn 0.8225 0.0424 0.5672
vn 0.8225 -0.0424 0.5672
vn 0.8225 -0.5672 0.0424
vn 0.8225 -0.5672 -0.0424
vn 0.9325 0.3613 0.0000
vn 0.9052 0.2391 0.3514
vn 0.9052 -0.2391 0.3514
vn 0.9325 -0.3613 0.0000
vn 0.9325 0.0000 0.3613
vn 0.9052 -0.3514 0.2391
vn 0.9052 -0.3514 -0.2391
vn 0.9325 0.0000 -0.3613
vn 0.9052 -0.2391 -0.3514
vn 0.9052 0.2391 -0.3514
vn 0.9052 0.3514 -0.2391
vn 0.9052 0.3514 0.2391
g Cube_Cube_Material
usemtl Material
s off
f 1/1/1 5/2/1 7/3/1 3/4/1
f 4/5/2 3/4/2 7/6/2 8/7/2
f 8/8/3 7/9/3 5/10/3 6/11/3
f 6/12/4 2/13/4 4/5/4 8/14/4
f 1/1/5 3/4/5 15/15/5
f 6/11/6 5/10/6 1/1/6 2/13/6
f 3/4/5 4/5/5 16/16/5
f 4/5/5 2/13/5 17/17/5
f 1/1/7 9/18/7 18/19/7
f 2/13/5 1/1/5 14/20/5
f 9/18/8 2/13/8 19/21/8
f 3/4/9 9/18/9 20/22/9
f 9/18/10 1/1/10 21/23/10
f 4/5/11 9/18/11 22/24/11
f 9/18/12 3/4/12 23/25/12
f 2/13/13 9/18/13 24/26/13
f 9/18/14 4/5/14 25/27/14
f 1/1/15 10/28/15 14/20/15
f 10/28/16 2/13/16 14/20/16
f 3/4/17 11/29/17 15/15/17
f 11/29/18 1/1/18 15/15/18
f 4/5/19 12/30/19 16/16/19
f 12/30/20 3/4/20 16/16/20
f 2/13/21 13/31/21 17/17/21
f 13/31/22 4/5/22 17/17/22
f 9/18/23 10/28/23 18/19/23
f 10/28/24 1/1/24 18/19/24
f 2/13/25 10/28/25 19/21/25
f 10/28/26 9/18/26 19/21/26
f 9/18/27 11/29/27 20/22/27
f 11/29/28 3/4/28 20/22/28
f 1/1/29 11/29/29 21/23/29
f 11/29/30 9/18/30 21/23/30
f 9/18/26 12/30/26 22/24/26
f 12/30/31 4/5/31 22/24/31
f 3/4/32 12/30/32 23/25/32
f 12/30/23 9/18/23 23/25/23
f 9/18/30 13/31/30 24/26/30
f 13/31/33 2/13/33 24/26/33
f 4/5/34 13/31/34 25/27/34
f 13/31/27 9/18/27 25/27/27
